<?xml version='1.0' encoding='utf-8'?>
<svg xmlns="http://www.w3.org/2000/svg" width="1920" height="1080" viewBox="0 0 1920 1080" data-theme="dark" data-semantic-intent="taxonomy_list" data-relation-type="taxonomy" data-site-visual-identity="heritage-amber">
  <style>
        @font-face {
            font-family: 'Inter';
            src: url('assets/fonts/Inter-Regular.ttf') format('truetype');
            font-weight: 400;
            font-style: normal;
            font-display: swap;
        }
        @font-face {
            font-family: 'Inter';
            src: url('assets/fonts/Inter-Bold.ttf') format('truetype');
            font-weight: 600;
            font-style: normal;
            font-display: swap;
        }
        @font-face {
            font-family: 'Inter';
            src: url('assets/fonts/Inter-Bold.ttf') format('truetype');
            font-weight: 800;
            font-style: normal;
            font-display: swap;
        }
        
:root {
    --background: #0f172a;
    --panel: #1e293b;
    --primary-text: #f1f5f9;
    --muted-text: #94a3b8;
    --inverse-text: #0f172a;
    --border: #334155;
    --shadow-color: #000000;
    --icon-pad-bg: #1e293b;
    --art-glow: #7dd3fc;
    --art-glow-opacity: 0.18;
    --art-sheen: #ffffff;
    --art-sheen-opacity: 0.18;
    --art-shadow: #000000;
    --art-shadow-opacity: 0.28;
    --art-muted-line: #64748b;
    --art-panel-tint: #1e293b;
    --semantic-risk: #f87171;
    --semantic-warning: #fb923c;
    --semantic-uncertain: #fbbf24;
    --semantic-evidence: #60a5fa;
    --semantic-claim: #c084fc;
    --semantic-positive: #4ade80;
    --semantic-outcome: #22d3ee;
    --font-family: 'Inter', 'Segoe UI', 'Kalam', Roboto, Helvetica, Arial, sans-serif;
    --radius-xl: 16px;
    --font-family-headline: 'Segoe UI Variable Display', 'Aptos Display', 'Inter', 'Segoe UI', Helvetica, Arial, sans-serif;
    --font-family-body: 'Segoe UI Variable Text', 'Aptos', 'Inter', 'Segoe UI', Helvetica, Arial, sans-serif;
    --font-heading: var(--font-family-headline);
    --font-body: var(--font-family-body);
    --font-size-h1: 64px;
    --font-size-h2: 42px;
    --font-size-h3: 29px;
    --font-size-body: 21px;
    --font-size-caption: 17px;
    --secondary-text: var(--muted-text);
    --panel-border: var(--border);
    --font-weight-normal: 400;
    --font-weight-medium: 500;
    --font-weight-semibold: 600;
    --font-weight-bold: 700;
    --spacing-gutter-pct: 0.07;
    --spacing-top-pct: 0.15;
    --spacing-bottom-pct: 0.07;
    --spacing-title-y-pct: 0.055;
    --accent-1: #fbbf24;
    --accent-2: #fb923c;
    --accent-3: #f59e0b;
    --accent-4: #fca5a5;
    --accent-5: #d6a66f;
    --accent-6: #7dd3fc;
}
:root[data-theme="dark"] {
    --background: #0f172a;
    --panel: #1e293b;
    --primary-text: #f1f5f9;
    --muted-text: #94a3b8;
    --inverse-text: #0f172a;
    --border: #334155;
    --shadow-color: #000000;
    --icon-pad-bg: #1e293b;
    --art-glow: #7dd3fc;
    --art-glow-opacity: 0.18;
    --art-sheen: #ffffff;
    --art-sheen-opacity: 0.18;
    --art-shadow: #000000;
    --art-shadow-opacity: 0.28;
    --art-muted-line: #64748b;
    --art-panel-tint: #1e293b;
    --semantic-risk: #f87171;
    --semantic-warning: #fb923c;
    --semantic-uncertain: #fbbf24;
    --semantic-evidence: #60a5fa;
    --semantic-claim: #c084fc;
    --semantic-positive: #4ade80;
    --semantic-outcome: #22d3ee;
    --accent-1: #fbbf24;
    --accent-2: #fb923c;
    --accent-3: #f59e0b;
    --accent-4: #fca5a5;
    --accent-5: #d6a66f;
    --accent-6: #7dd3fc;
}
:root[data-theme="light"] {
    --background: #f8fafc;
    --panel: #ffffff;
    --primary-text: #0f172a;
    --muted-text: #64748b;
    --inverse-text: #ffffff;
    --border: #e2e8f0;
    --shadow-color: #000000;
    --icon-pad-bg: #1e293b;
    --art-glow: #0891b2;
    --art-glow-opacity: 0.10;
    --art-sheen: #ffffff;
    --art-sheen-opacity: 0.34;
    --art-shadow: #0f172a;
    --art-shadow-opacity: 0.14;
    --art-muted-line: #94a3b8;
    --art-panel-tint: #f1f5f9;
    --semantic-risk: #b91c1c;
    --semantic-warning: #c2410c;
    --semantic-uncertain: #a16207;
    --semantic-evidence: #1d4ed8;
    --semantic-claim: #6d28d9;
    --semantic-positive: #15803d;
    --semantic-outcome: #0e7490;
    --accent-1: #a16207;
    --accent-2: #c2410c;
    --accent-3: #b45309;
    --accent-4: #b91c1c;
    --accent-5: #92400e;
    --accent-6: #0369a1;
}</style>
  <rect x="0" y="0" width="1.92E+3" height="1.08E+3" fill="#252a34" stroke="none" id="programmatic_background"/>
  <line id="HEADER_DECOR" x1="960.0" x2="1080.0" y1="135.0" y2="135.0" stroke="var(--accent-1)" stroke-width="6" stroke-linecap="round"/>
  <defs>
    <pattern id="svge614947e-napkin-hatch" patternUnits="userSpaceOnUse" width="12" height="12">
      <path d="M -3 12 L 12 -3 M 0 15 L 15 0" fill="none" stroke="var(--primary-text)" stroke-width="1" stroke-opacity="0.05"/>
    </pattern>
    <filter id="svge614947e-shadow" x="-30%" y="-30%" width="160%" height="160%">
      <feDropShadow dx="0" dy="2" stdDeviation="3" flood-color="#000000" flood-opacity="0.08"/>
      <feDropShadow dx="0" dy="6" stdDeviation="10" flood-color="#000000" flood-opacity="0.12"/>
    </filter>
    <radialGradient id="svge614947e-universal-edge-vignette" cx="50%" cy="50%" r="72%">
      <stop offset="0%" stop-color="var(--background)" stop-opacity="0"/>
      <stop offset="72%" stop-color="var(--background)" stop-opacity="0.12"/>
      <stop offset="100%" stop-color="var(--primary-text)" stop-opacity="0.08"/>
    </radialGradient>
    <linearGradient id="svge614947e-universal-surface-sheen" x1="0%" y1="0%" x2="100%" y2="100%">
      <stop offset="0%" stop-color="var(--art-sheen)" stop-opacity="var(--art-sheen-opacity)"/>
      <stop offset="46%" stop-color="var(--art-sheen)" stop-opacity="0.035"/>
      <stop offset="100%" stop-color="var(--art-panel-tint)" stop-opacity="0.14"/>
    </linearGradient>
    <radialGradient id="svge614947e-universal-icon-aura" cx="50%" cy="42%" r="64%">
      <stop offset="0%" stop-color="var(--art-glow)" stop-opacity="var(--art-glow-opacity)"/>
      <stop offset="100%" stop-color="var(--background)" stop-opacity="0"/>
    </radialGradient>
    <linearGradient id="svge614947e-fact-card-sheen" x1="0%" y1="0%" x2="100%" y2="100%">
      <stop offset="0%" stop-color="var(--inverse-text)" stop-opacity="0.18"/>
      <stop offset="54%" stop-color="var(--inverse-text)" stop-opacity="0.04"/>
      <stop offset="100%" stop-color="var(--background)" stop-opacity="0.14"/>
    </linearGradient>
    <radialGradient id="svge614947e-fact-icon-glow" cx="50%" cy="42%" r="62%">
      <stop offset="0%" stop-color="var(--inverse-text)" stop-opacity="0.22"/>
      <stop offset="100%" stop-color="var(--background)" stop-opacity="0"/>
    </radialGradient>
    <filter id="svge614947e-text-glow" x="-20%" y="-20%" width="140%" height="140%">
      <feDropShadow dx="0" dy="0" stdDeviation="2" flood-color="#000000" flood-opacity="0.4"/>
    </filter>
    <marker id="svge614947e-arrowhead" markerWidth="10" markerHeight="7" refX="9" refY="3.5" orient="auto" markerUnits="strokeWidth">
      <polygon points="0 0, 10 3.5, 0 7" fill="var(--muted-text)" opacity="0.6"/>
    </marker>
  </defs>
  <rect width="100%" height="100%" fill="var(--background)" id="CANVAS_BG"/>
  <rect width="100%" height="100%" fill="url(#svge614947e-napkin-hatch)"/>
  <rect id="UNIVERSAL_EDGE_VIGNETTE" width="100%" height="100%" fill="url(#svge614947e-universal-edge-vignette)" opacity="0.62"/>
  <line x1="960" y1="178" x2="960" y2="986" stroke="var(--muted-text)" stroke-width="5" stroke-opacity="0.10" stroke-linecap="round"/>
  <path d="M 360 178 C 620 152 1300 152 1560 178" fill="none" stroke="var(--primary-text)" stroke-width="2" stroke-opacity="0.12" stroke-linecap="round"/>
  <text id="TITLE" x="960.0" y="59" text-anchor="middle" font-weight="800" font-size="72" fill="#f1f5f9" style="font-size: 69px; font-family: 'Segoe UI Variable Display', 'Aptos Display', 'Inter', 'Segoe UI', Helvetica, Arial, sans-serif; font-weight: 800; font-kerning: normal; font-feature-settings: &quot;kern&quot; 1, &quot;liga&quot; 1; letter-spacing:-1.2px;" data-final-font-size="69">
    <tspan x="960.0" dy="70.47px">Angola's Primary Museum Collections</tspan>
  </text>
  <rect id="TITLE_FRAME" x="134" y="59" width="1652" height="103" fill="none"/>
  <g transform="translate(960.0, 250.0)">
    <rect id="ITEM_1_BG" x="-600" y="-72" width="1200" height="176" rx="24" fill="var(--accent-1)" stroke="var(--accent-1)" filter="url(#svge614947e-shadow)" stroke-width="3" fill-opacity="0.4"/>
    <g transform="translate(-480.0, 0.0)">
      <circle r="60" fill="var(--background)" opacity="0.3"/>
      <circle id="ITEM_1_PAD" cx="0" cy="0" r="50" fill="var(--icon-pad-bg)" stroke="var(--accent-1)" opacity="1" fill-opacity="0.9" stroke-width="2" stroke-opacity="0.72" data-badge-layer="pad"/>
      <circle id="ITEM_1_PAD_INNER" cx="0" cy="0" r="39.00" fill="var(--accent-1)" fill-opacity="0.12" stroke="none" data-badge-layer="tint"/>
      <circle cx="0" cy="0" r="40" fill="none" stroke="var(--accent-1)" stroke-width="3" stroke-dasharray="6 4" display="none" data-suppressed-decoration="redundant-badge-ring"/>
      <g id="ITEM_1_ICON" transform="translate(-39, -39)" data-icon-size="78" stroke-linecap="round" stroke-linejoin="round" data-badge-treatment="clean">
        <g transform="translate(-1.918032786885246,-1.9180327868852514) scale(0.1598360655737705)" vector-effect="non-scaling-stroke" fill="#f1f5f9" fill-opacity="1.0" stroke="none">
          <path fill="#f1f5f9" d="M256 21c-41 0-82 6.9-115.1 20.34c-33 13.38-57.7 33.05-68.48 57.92C57.64 144.1 61.7 219.2 83.55 291.8C105.5 364.7 145 435.1 197.3 472.7c30.6 22.1 86.8 22.1 117.4 0c52.3-37.6 91.8-108 113.7-180.9c21.9-72.6 26-147.7 11.2-192.54c-10.8-24.87-35.5-44.54-68.5-57.92C338 27.9 297 21 256 21m0 18c13.7 0 25 11.3 25 25s-11.3 25-25 25s-25-11.3-25-25s11.3-25 25-25m-76 28c13.7 0 25 11.3 25 25s-11.3 25-25 25s-25-11.3-25-25s11.3-25 25-25m152 0c13.7 0 25 11.3 25 25s-11.3 25-25 25s-25-11.3-25-25s11.3-25 25-25m-220 36c13.7 0 25 11.3 25 25s-11.3 25-25 25s-25-11.3-25-25s11.3-25 25-25m288 0c13.7 0 25 11.3 25 25s-11.3 25-25 25s-25-11.3-25-25s11.3-25 25-25m-185.6 34.6l41.6 41.7l41.6-41.7l12.8 12.8l-54.4 54.3l-54.4-54.3zm-55 54.1h2.8c6.4.1 13.2 1.3 20.1 3.8c15.8 5.8 32 18 48.7 38.9l4.1 5.1l-3.6 5.5C214 271.3 187 285 160 285s-54-13.7-71.49-40l-4.09-6.1l5.22-5.3c6.94-6.9 24.06-28.9 49.26-38.1c6.3-2.3 13.2-3.7 20.5-3.8m190.4 0h2.8c7.3.1 14.2 1.5 20.5 3.8c25.2 9.2 42.3 31.2 49.3 38.1l5.2 5.3l-4.1 6.1C406 271.3 379 285 352 285s-54-13.7-71.5-40l-3.6-5.5l4.1-5.1c16.7-20.9 32.9-33.1 48.7-38.9c6.9-2.5 13.7-3.7 20.1-3.8m-190.1 17.9c-5.1.1-9.9 1.2-14.6 2.9c-15.6 5.6-28.2 18.7-37.3 28.2C122 258.4 141 267 160 267c19.1 0 38.2-8.6 52.4-26.5c-13.4-15.5-25.7-24.2-36.2-28c-5.9-2.2-11.3-3-16.5-2.9m192.6 0c-5.2-.1-10.6.7-16.5 2.9c-10.5 3.8-22.8 12.5-36.2 28c14.2 17.9 33.3 26.5 52.4 26.5c19 0 38-8.6 52.2-26.3c-9.1-9.5-21.7-22.6-37.3-28.2c-4.7-1.7-9.5-2.8-14.6-2.9M247 240h18l7 112c0 16-32 16-32 0zM61.29 279.1c-14.18 1.2-25.75 11.8-33.44 25.6C19.67 319.4 15 338.8 15 360s4.67 40.6 12.85 55.3S48.58 441 64 441s27.97-11 36.2-25.7c3.2-5.8 5.9-12.4 8-19.6c-4.8-8.3-9.36-16.9-13.62-25.7c-1.22 14.4-5.02 27.3-10.16 36.5C78.12 417.9 70.67 423 64 423s-14.12-5.1-20.42-16.5C37.29 395.2 33 378.5 33 360s4.29-35.2 10.58-46.5C49.88 302.1 57.33 297 64 297c.79 0 1.58.1 2.39.2c-.02-.1-.05-.1-.07-.2c-1.79-6-3.46-11.9-5.03-17.9m389.41 0c-1.5 6-3.2 11.9-5 17.9c0 .1 0 .1-.1.2c.8-.1 1.6-.2 2.4-.2c6.7 0 14.1 5.1 20.4 16.5c6.3 11.3 10.6 28 10.6 46.5s-4.3 35.2-10.6 46.5c-6.3 11.4-13.7 16.5-20.4 16.5s-14.1-5.1-20.4-16.5c-5.1-9.2-9-22-10.2-36.5c-4.2 8.8-8.8 17.4-13.5 25.7c2 7.2 4.7 13.8 7.9 19.6C420 430 432.6 441 448 441s28-11 36.2-25.7c8.1-14.7 12.8-34.1 12.8-55.3s-4.7-40.6-12.8-55.3c-7.7-13.8-19.3-24.4-33.5-25.6m-233.1 2.5l12.8 12.8c-9.1 9-25.3 21.1-44 31.5S147 345 128 345v-18c13 0 32.3-7.3 49.6-16.9s33.1-21.5 40-28.5m76.8 0c6.9 7 22.7 18.9 40 28.5S371 327 384 327v18c-19 0-39.7-8.7-58.4-19.1s-34.9-22.5-44-31.5zm-76.8 48l12.8 12.8c-9.1 9-21.7 17.3-34.4 23.7c-12.7 6.3-25 10.9-36 10.9v-18c5 0 16.7-3.4 28-9.1c11.3-5.6 22.7-13.3 29.6-20.3m76.8 0c6.9 7 18.3 14.7 29.6 20.3c11.3 5.7 23 9.1 28 9.1v18c-11 0-23.3-4.6-36-10.9c-12.7-6.4-25.3-14.7-34.4-23.7zM256 391c18.6 0 35.4 2.7 48.4 7.6c6.5 2.4 12.1 5.4 16.5 9.3c4.5 4 8.1 9.5 8.1 16.1s-3.6 12.1-8.1 16.1c-4.4 3.9-10 6.9-16.5 9.3c-13 4.9-29.8 7.6-48.4 7.6s-35.4-2.7-48.4-7.6c-6.5-2.4-12.1-5.4-16.5-9.3c-4.5-4-8.1-9.5-8.1-16.1s3.6-12.1 8.1-16.1c4.4-3.9 10-6.9 16.5-9.3c13-4.9 29.8-7.6 48.4-7.6" vector-effect="non-scaling-stroke" stroke="none"/>
        </g>
      </g>
    </g>
    <g transform="translate(-330, -36)">
      <text id="ITEM_1_HEAD" text-anchor="start" font-weight="bold" font-size="34" fill="var(--primary-text)" x="0.0" y="-10.0" data-bg-id="ITEM_1_BG" fill-opacity="1.0" stroke="none" style="font-size: 31px; font-family: 'Segoe UI Variable Display', 'Aptos Display', 'Inter', 'Segoe UI', Helvetica, Arial, sans-serif; font-weight: 700; font-kerning: normal; font-feature-settings: &quot;kern&quot; 1, &quot;liga&quot; 1; letter-spacing:-0.4px;" data-final-font-size="31">
        <tspan x="0.0" dy="30.52px">Ritual and Ceremonial</tspan>
      </text>
      <rect id="ITEM_1_HEAD_FRAME" x="0" y="-10" width="846" height="44" fill="none"/>
      <text id="ITEM_1_BODY" text-anchor="start" font-size="24" fill="var(--primary-text)" x="0.0" y="24.0" data-bg-id="ITEM_1_BG" style="font-size: 23px; font-family: 'Segoe UI Variable Text', 'Aptos', 'Inter', 'Segoe UI', Helvetica, Arial, sans-serif; font-weight: 400; font-kerning: normal; font-feature-settings: &quot;kern&quot; 1, &quot;liga&quot; 1;" data-final-font-size="23">
        <tspan x="0.0" dy="29.91px">Includes masks, carved figures, chiefly regalia, and musical instruments</tspan>
      </text>
      <rect id="ITEM_1_BODY_FRAME" x="0" y="24" width="846" height="84" fill="none"/>
    </g>
  </g>
  <g transform="translate(960.0, 465.0)">
    <rect id="ITEM_2_BG" x="-600" y="-72" width="1200" height="176" rx="24" fill="var(--accent-2)" stroke="var(--accent-2)" filter="url(#svge614947e-shadow)" stroke-width="3" fill-opacity="0.4"/>
    <g transform="translate(-480.0, 0.0)">
      <circle r="60" fill="var(--background)" opacity="0.3"/>
      <circle id="ITEM_2_PAD" cx="0" cy="0" r="50" fill="var(--icon-pad-bg)" stroke="var(--accent-2)" opacity="1" fill-opacity="0.9" stroke-width="2" stroke-opacity="0.72" data-badge-layer="pad"/>
      <circle id="ITEM_2_PAD_INNER" cx="0" cy="0" r="39.00" fill="var(--accent-2)" fill-opacity="0.12" stroke="none" data-badge-layer="tint"/>
      <circle cx="0" cy="0" r="40" fill="none" stroke="var(--accent-1)" stroke-width="3" stroke-dasharray="6 4" display="none" data-suppressed-decoration="redundant-badge-ring"/>
      <g id="ITEM_2_ICON" transform="translate(-39, -39)" data-icon-size="78" stroke-linecap="round" stroke-linejoin="round" data-badge-treatment="clean">
        <g transform="translate(0.0,0.0) scale(5.571428571428571)" vector-effect="non-scaling-stroke" stroke-width="2.65" stroke-linecap="round" stroke-linejoin="round" stroke-opacity="1.0">
          <path id="Vector" fill="none" d="M12.59 5.5H8.91c-1.84073 0.00173 -3.63435 0.58195 -5.12734 1.65862C2.28966 8.2353 1.17282 9.75398 0.589996 11.5H12.41c0.1444 0 0.2872 -0.0313 0.4184 -0.0917 0.1312 -0.0604 0.2477 -0.1485 0.3416 -0.2583 0.0949 -0.1102 0.1647 -0.2397 0.2044 -0.3796 0.0397 -0.1399 0.0485 -0.2868 0.0256 -0.4304l-0.81 -4.84Z" vector-effect="non-scaling-stroke" stroke="#f1f5f9"/>
          <path id="Vector_2" stroke="#f1f5f9" d="M12.59 5.5H8.91c-1.84073 0.00173 -3.63435 0.58195 -5.12734 1.65862C2.28966 8.2353 1.17282 9.75398 0.589996 11.5H12.41c0.1444 0 0.2872 -0.0313 0.4184 -0.0917 0.1312 -0.0604 0.2477 -0.1485 0.3416 -0.2583 0.0949 -0.1102 0.1647 -0.2397 0.2044 -0.3796 0.0397 -0.1399 0.0485 -0.2868 0.0256 -0.4304l-0.81 -4.84Z" vector-effect="non-scaling-stroke" fill="none"/>
          <path id="Vector_3" stroke="#f1f5f9" d="m12.59 5.5 -0.22 -1.33c-0.0788 -0.47142 -0.3239 -0.89903 -0.6907 -1.20537 -0.3669 -0.30635 -0.8314 -0.47118 -1.3093 -0.46463H4.59" vector-effect="non-scaling-stroke" fill="none"/>
        </g>
      </g>
    </g>
    <g transform="translate(-330, -36)">
      <text id="ITEM_2_HEAD" text-anchor="start" font-weight="bold" font-size="34" fill="var(--primary-text)" x="0.0" y="-10.0" data-bg-id="ITEM_2_BG" fill-opacity="1.0" stroke="none" style="font-size: 31px; font-family: 'Segoe UI Variable Display', 'Aptos Display', 'Inter', 'Segoe UI', Helvetica, Arial, sans-serif; font-weight: 700; font-kerning: normal; font-feature-settings: &quot;kern&quot; 1, &quot;liga&quot; 1; letter-spacing:-0.4px;" data-final-font-size="31">
        <tspan x="0.0" dy="30.52px">Enslavement Evidence</tspan>
      </text>
      <rect id="ITEM_2_HEAD_FRAME" x="0" y="-10" width="846" height="44" fill="none"/>
      <text id="ITEM_2_BODY" text-anchor="start" font-size="24" fill="var(--primary-text)" x="0.0" y="24.0" data-bg-id="ITEM_2_BG" style="font-size: 23px; font-family: 'Segoe UI Variable Text', 'Aptos', 'Inter', 'Segoe UI', Helvetica, Arial, sans-serif; font-weight: 400; font-kerning: normal; font-feature-settings: &quot;kern&quot; 1, &quot;liga&quot; 1;" data-final-font-size="23">
        <tspan x="0.0" dy="29.91px">Contains shackles, chains, whips, and ship models for study</tspan>
      </text>
      <rect id="ITEM_2_BODY_FRAME" x="0" y="24" width="846" height="84" fill="none"/>
    </g>
  </g>
  <g transform="translate(960.0, 660.0)">
    <rect id="ITEM_3_BG" x="-600" y="-72" width="1200" height="176" rx="24" fill="var(--accent-3)" stroke="var(--accent-3)" filter="url(#svge614947e-shadow)" stroke-width="3" fill-opacity="0.4"/>
    <g transform="translate(-480.0, 0.0)">
      <circle r="60" fill="var(--background)" opacity="0.3"/>
      <circle id="ITEM_3_PAD" cx="0" cy="0" r="50" fill="var(--icon-pad-bg)" stroke="var(--accent-3)" opacity="1" fill-opacity="0.9" stroke-width="2" stroke-opacity="0.72" data-badge-layer="pad"/>
      <circle id="ITEM_3_PAD_INNER" cx="0" cy="0" r="39.00" fill="var(--accent-3)" fill-opacity="0.12" stroke="none" data-badge-layer="tint"/>
      <circle cx="0" cy="0" r="40" fill="none" stroke="var(--accent-2)" stroke-width="3" stroke-dasharray="6 4" display="none" data-suppressed-decoration="redundant-badge-ring"/>
      <g id="ITEM_3_ICON" transform="translate(-39, -39)" data-icon-size="78" stroke-linecap="round" stroke-linejoin="round" data-badge-treatment="clean">
        <g transform="translate(-3.052173913043478,-4.069565217391304) scale(2.7130434782608694)">
          <path d="M24.0391 6.50785C27.0078 9.50004 29 12.9532 29 16.4688C29 22.8896 27.0502 26.86 22.3519 28.7834C21.7423 28.6957 21.1938 28.5899 20.7 28.4651L20.6875 29.047C20.5833 29.6095 20.2031 30.3994 19.0625 29.7501C18.2234 29.2723 16.9509 28.1995 16.7334 25.4686C16.2218 24.198 16.1162 22.5598 16 20.5001C15.8357 17.5891 12.9219 16.6095 11 16.5001C9.16066 16.3955 2.68432 16.0332 2.13144 16.0022C2.11443 15.6318 2.11085 15.261 2.12109 14.8907C2.12109 12.2307 5.48437 9.99005 7.83372 9.99005H14.3837C17.8437 9.99005 20.6537 12.8001 20.6537 16.2601C20.4844 18.672 24.0267 19.6662 24.4737 17.0401C24.9665 14.1449 23.8828 10.8753 22.0391 8.5471C21.8438 8.50002 21.7307 8.50039 21.5938 8.59377C20.3359 9.85159 19.4337 9.90584 17.7422 9.50784C17.6686 9.46055 17.5846 9.43217 17.5033 9.40471C17.2752 9.32763 17.0682 9.25769 17.1719 8.7969C17.3125 8.1719 18.2969 7.07815 18.2969 7.07815C19.0703 6.1719 20.0547 5.96877 20.5234 6.02346C20.9249 6.0703 21.0378 5.95464 21.1029 5.88787C21.1138 5.87667 21.1234 5.86685 21.1328 5.8594C21.1981 5.80752 21.2656 5.4219 21.2656 5.4219C21.1016 4.5469 21.3088 3.74389 21.8125 3.03909C21.8125 3.03909 22.6953 1.77349 23.5 1.69536C24.2193 1.62553 24.3028 2.06462 24.3786 2.46259C24.3875 2.50982 24.3964 2.55654 24.4062 2.6017C24.7401 4.13697 24.5763 4.50402 24.1912 5.36709C24.1256 5.51407 24.0536 5.67543 23.9766 5.8594C23.8479 6.16667 23.9186 6.29282 24.0145 6.46374C24.0225 6.47808 24.0308 6.49274 24.0391 6.50785Z" fill="#00A6ED"/>
          <path d="M8.21875 29.9375C6.48438 29.9375 4.57812 27.5 5.10937 24.0156C5.42187 24.2156 7.72396 26.0677 8.85937 27.1562C9.1875 28 8.96875 29.9375 8.21875 29.9375Z" fill="#00A6ED"/>
          <path d="M15.517 15.0001C15.1867 15.0001 14.9127 14.7261 14.9127 14.3958V13.6384C14.9127 13.3081 15.1867 13.0342 15.517 13.0342C15.8473 13.0342 16.1213 13.3081 16.1213 13.6384V14.3958C16.1213 14.7342 15.8473 15.0001 15.517 15.0001Z" fill="#1C1C1C"/>
          <path d="M20.7055 28.2075C21.204 28.3938 21.7654 28.5777 22.398 28.7644C21.8378 28.9962 21.2383 29.1987 20.5981 29.3725C20.6394 29.2632 20.6682 29.1512 20.6875 29.047L20.7055 28.2075Z" fill="#AEDDFF"/>
          <path d="M16.7329 23.7396C16.626 22.9685 16.5756 22.0687 16.5157 20.9994L16.5 20.7188C16.3357 17.8077 12.7344 16.1094 10.8125 16C8.97415 15.8954 2.67537 15.9909 2.13131 15.9994C2.4697 23.3988 8.16521 30.6385 16.0164 30.0947C17.0934 30.0201 18.0947 29.8982 19.0234 29.7276C18.0237 29.1453 16.4592 27.7214 16.7329 23.7396Z" fill="#AEDDFF"/>
        </g>
      </g>
    </g>
    <g transform="translate(-330, -36)">
      <text id="ITEM_3_HEAD" text-anchor="start" font-weight="bold" font-size="34" fill="var(--primary-text)" x="0.0" y="-10.0" data-bg-id="ITEM_3_BG" fill-opacity="1.0" stroke="none" style="font-size: 31px; font-family: 'Segoe UI Variable Display', 'Aptos Display', 'Inter', 'Segoe UI', Helvetica, Arial, sans-serif; font-weight: 700; font-kerning: normal; font-feature-settings: &quot;kern&quot; 1, &quot;liga&quot; 1; letter-spacing:-0.4px;" data-final-font-size="31">
        <tspan x="0.0" dy="30.52px">Natural History</tspan>
      </text>
      <rect id="ITEM_3_HEAD_FRAME" x="0" y="-10" width="846" height="44" fill="none"/>
      <text id="ITEM_3_BODY" text-anchor="start" font-size="24" fill="var(--primary-text)" x="0.0" y="24.0" data-bg-id="ITEM_3_BG" style="font-size: 23px; font-family: 'Segoe UI Variable Text', 'Aptos', 'Inter', 'Segoe UI', Helvetica, Arial, sans-serif; font-weight: 400; font-kerning: normal; font-feature-settings: &quot;kern&quot; 1, &quot;liga&quot; 1;" data-final-font-size="23">
        <tspan x="0.0" dy="29.91px">Features taxidermied mammals, shells, insects, and whale skeletons</tspan>
      </text>
      <rect id="ITEM_3_BODY_FRAME" x="0" y="24" width="846" height="84" fill="none"/>
    </g>
  </g>
  <g transform="translate(960.0, 855.0)">
    <rect id="ITEM_4_BG" x="-600" y="-72" width="1200" height="176" rx="24" fill="var(--accent-1)" stroke="var(--accent-4)" filter="url(#svge614947e-shadow)" stroke-width="3" fill-opacity="0.4"/>
    <g transform="translate(-480.0, 0.0)">
      <circle r="60" fill="var(--background)" opacity="0.3"/>
      <circle id="ITEM_4_PAD" cx="0" cy="0" r="50" fill="var(--icon-pad-bg)" stroke="var(--accent-1)" opacity="1" fill-opacity="0.9" stroke-width="2" stroke-opacity="0.72" data-badge-layer="pad"/>
      <circle id="ITEM_4_PAD_INNER" cx="0" cy="0" r="39.00" fill="var(--accent-1)" fill-opacity="0.12" stroke="none" data-badge-layer="tint"/>
      <circle cx="0" cy="0" r="40" fill="none" stroke="var(--accent-3)" stroke-width="3" stroke-dasharray="6 4" display="none" data-suppressed-decoration="redundant-badge-ring"/>
      <g id="ITEM_4_ICON" transform="translate(-39, -39)" data-icon-size="78" stroke-linecap="round" stroke-linejoin="round" data-badge-treatment="clean">
        <g transform="translate(-3.4513274336283186,-7.2477876106194685) scale(3.6814159292035398)" vector-effect="non-scaling-stroke" stroke-width="2.65" stroke-linecap="round" stroke-linejoin="round" stroke-opacity="1.0">
          <path d="M2 12m0 3a3 3 0 0 1 3 -3h12a3 3 0 0 1 3 3v0a3 3 0 0 1 -3 3h-12a3 3 0 0 1 -3 -3z" vector-effect="non-scaling-stroke" fill="none" stroke="#f1f5f9"/>
          <path d="M6 12l1 -5h5l3 5" vector-effect="non-scaling-stroke" fill="none" stroke="#f1f5f9"/>
          <path d="M21 9l-7.8 0" vector-effect="non-scaling-stroke" fill="none" stroke="#f1f5f9"/>
        </g>
      </g>
    </g>
    <g transform="translate(-330, -36)">
      <text id="ITEM_4_HEAD" text-anchor="start" font-weight="bold" font-size="34" fill="var(--primary-text)" x="0.0" y="-10.0" data-bg-id="ITEM_4_BG" fill-opacity="1.0" stroke="none" style="font-size: 31px; font-family: 'Segoe UI Variable Display', 'Aptos Display', 'Inter', 'Segoe UI', Helvetica, Arial, sans-serif; font-weight: 700; font-kerning: normal; font-feature-settings: &quot;kern&quot; 1, &quot;liga&quot; 1; letter-spacing:-0.4px;" data-final-font-size="31">
        <tspan x="0.0" dy="30.52px">Military and Colonial</tspan>
      </text>
      <rect id="ITEM_4_HEAD_FRAME" x="0" y="-10" width="846" height="44" fill="none"/>
      <text id="ITEM_4_BODY" text-anchor="start" font-size="24" fill="var(--primary-text)" x="0.0" y="24.0" data-bg-id="ITEM_4_BG" style="font-size: 23px; font-family: 'Segoe UI Variable Text', 'Aptos', 'Inter', 'Segoe UI', Helvetica, Arial, sans-serif; font-weight: 400; font-kerning: normal; font-feature-settings: &quot;kern&quot; 1, &quot;liga&quot; 1;" data-final-font-size="23">
        <tspan x="0.0" dy="29.91px">Houses aircraft, combat vehicles, and displaced colonial statues</tspan>
      </text>
      <rect id="ITEM_4_BODY_FRAME" x="0" y="24" width="846" height="84" fill="none"/>
    </g>
  </g>
  <text id="SOURCE_NOTE" x="134.0" y="1058.0" fill="var(--muted-text)" opacity="0.88" style="font-family: var(--font-family); font-size: 20px;">Source: Introduction</text>
</svg>
