<?xml version='1.0' encoding='utf-8'?>
<svg xmlns="http://www.w3.org/2000/svg" width="1920" height="1080" viewBox="0 0 1920 1080" data-theme="dark" data-semantic-intent="uncertain_compare" data-relation-type="hypothesis_comparison" data-site-visual-identity="heritage-amber">
  <style>
        @font-face {
            font-family: 'Inter';
            src: url('assets/fonts/Inter-Regular.ttf') format('truetype');
            font-weight: 400;
            font-style: normal;
            font-display: swap;
        }
        @font-face {
            font-family: 'Inter';
            src: url('assets/fonts/Inter-Bold.ttf') format('truetype');
            font-weight: 600;
            font-style: normal;
            font-display: swap;
        }
        @font-face {
            font-family: 'Inter';
            src: url('assets/fonts/Inter-Bold.ttf') format('truetype');
            font-weight: 800;
            font-style: normal;
            font-display: swap;
        }
        
:root {
    --background: #0f172a;
    --panel: #1e293b;
    --primary-text: #f1f5f9;
    --muted-text: #94a3b8;
    --inverse-text: #0f172a;
    --border: #334155;
    --shadow-color: #000000;
    --icon-pad-bg: #1e293b;
    --art-glow: #7dd3fc;
    --art-glow-opacity: 0.18;
    --art-sheen: #ffffff;
    --art-sheen-opacity: 0.18;
    --art-shadow: #000000;
    --art-shadow-opacity: 0.28;
    --art-muted-line: #64748b;
    --art-panel-tint: #1e293b;
    --semantic-risk: #f87171;
    --semantic-warning: #fb923c;
    --semantic-uncertain: #fbbf24;
    --semantic-evidence: #60a5fa;
    --semantic-claim: #c084fc;
    --semantic-positive: #4ade80;
    --semantic-outcome: #22d3ee;
    --font-family: 'Inter', 'Segoe UI', 'Kalam', Roboto, Helvetica, Arial, sans-serif;
    --radius-xl: 16px;
    --font-family-headline: 'Segoe UI Variable Display', 'Aptos Display', 'Inter', 'Segoe UI', Helvetica, Arial, sans-serif;
    --font-family-body: 'Segoe UI Variable Text', 'Aptos', 'Inter', 'Segoe UI', Helvetica, Arial, sans-serif;
    --font-heading: var(--font-family-headline);
    --font-body: var(--font-family-body);
    --font-size-h1: 64px;
    --font-size-h2: 42px;
    --font-size-h3: 29px;
    --font-size-body: 21px;
    --font-size-caption: 17px;
    --secondary-text: var(--muted-text);
    --panel-border: var(--border);
    --font-weight-normal: 400;
    --font-weight-medium: 500;
    --font-weight-semibold: 600;
    --font-weight-bold: 700;
    --spacing-gutter-pct: 0.07;
    --spacing-top-pct: 0.15;
    --spacing-bottom-pct: 0.07;
    --spacing-title-y-pct: 0.055;
    --accent-1: #fbbf24;
    --accent-2: #fb923c;
    --accent-3: #f59e0b;
    --accent-4: #fca5a5;
    --accent-5: #d6a66f;
    --accent-6: #7dd3fc;
}
:root[data-theme="dark"] {
    --background: #0f172a;
    --panel: #1e293b;
    --primary-text: #f1f5f9;
    --muted-text: #94a3b8;
    --inverse-text: #0f172a;
    --border: #334155;
    --shadow-color: #000000;
    --icon-pad-bg: #1e293b;
    --art-glow: #7dd3fc;
    --art-glow-opacity: 0.18;
    --art-sheen: #ffffff;
    --art-sheen-opacity: 0.18;
    --art-shadow: #000000;
    --art-shadow-opacity: 0.28;
    --art-muted-line: #64748b;
    --art-panel-tint: #1e293b;
    --semantic-risk: #f87171;
    --semantic-warning: #fb923c;
    --semantic-uncertain: #fbbf24;
    --semantic-evidence: #60a5fa;
    --semantic-claim: #c084fc;
    --semantic-positive: #4ade80;
    --semantic-outcome: #22d3ee;
    --accent-1: #fbbf24;
    --accent-2: #fb923c;
    --accent-3: #f59e0b;
    --accent-4: #fca5a5;
    --accent-5: #d6a66f;
    --accent-6: #7dd3fc;
}
:root[data-theme="light"] {
    --background: #f8fafc;
    --panel: #ffffff;
    --primary-text: #0f172a;
    --muted-text: #64748b;
    --inverse-text: #ffffff;
    --border: #e2e8f0;
    --shadow-color: #000000;
    --icon-pad-bg: #1e293b;
    --art-glow: #0891b2;
    --art-glow-opacity: 0.10;
    --art-sheen: #ffffff;
    --art-sheen-opacity: 0.34;
    --art-shadow: #0f172a;
    --art-shadow-opacity: 0.14;
    --art-muted-line: #94a3b8;
    --art-panel-tint: #f1f5f9;
    --semantic-risk: #b91c1c;
    --semantic-warning: #c2410c;
    --semantic-uncertain: #a16207;
    --semantic-evidence: #1d4ed8;
    --semantic-claim: #6d28d9;
    --semantic-positive: #15803d;
    --semantic-outcome: #0e7490;
    --accent-1: #a16207;
    --accent-2: #c2410c;
    --accent-3: #b45309;
    --accent-4: #b91c1c;
    --accent-5: #92400e;
    --accent-6: #0369a1;
}</style>
  <rect x="0" y="0" width="1.92E+3" height="1.08E+3" fill="#252a34" stroke="none" id="programmatic_background"/>
  <line id="HEADER_DECOR" x1="960.0" x2="1080.0" y1="135.0" y2="135.0" stroke="var(--accent-1)" stroke-width="6" stroke-linecap="round"/>
  <defs>
    <filter id="svga16edf75-force-white" x="-20%" y="-20%" width="140%" height="140%">
      <feColorMatrix type="matrix" values="0 0 0 0 1                                            0 0 0 0 1                                            0 0 0 0 1                                            0 0 0 1 0"/>
    </filter>
    <pattern id="svga16edf75-napkin-hatch" patternUnits="userSpaceOnUse" width="12" height="12">
      <path d="M -3 12 L 12 -3 M 0 15 L 15 0" fill="none" stroke="var(--primary-text)" stroke-width="1" stroke-opacity="0.05"/>
    </pattern>
    <radialGradient id="svga16edf75-universal-edge-vignette" cx="50%" cy="50%" r="72%">
      <stop offset="0%" stop-color="var(--background)" stop-opacity="0"/>
      <stop offset="72%" stop-color="var(--background)" stop-opacity="0.12"/>
      <stop offset="100%" stop-color="var(--primary-text)" stop-opacity="0.08"/>
    </radialGradient>
    <linearGradient id="svga16edf75-universal-surface-sheen" x1="0%" y1="0%" x2="100%" y2="100%">
      <stop offset="0%" stop-color="var(--art-sheen)" stop-opacity="var(--art-sheen-opacity)"/>
      <stop offset="46%" stop-color="var(--art-sheen)" stop-opacity="0.035"/>
      <stop offset="100%" stop-color="var(--art-panel-tint)" stop-opacity="0.14"/>
    </linearGradient>
    <radialGradient id="svga16edf75-universal-icon-aura" cx="50%" cy="42%" r="64%">
      <stop offset="0%" stop-color="var(--art-glow)" stop-opacity="var(--art-glow-opacity)"/>
      <stop offset="100%" stop-color="var(--background)" stop-opacity="0"/>
    </radialGradient>
    <linearGradient id="svga16edf75-comparison-card-depth" x1="0%" y1="0%" x2="0%" y2="100%">
      <stop offset="0%" stop-color="var(--art-sheen)" stop-opacity="0.30"/>
      <stop offset="55%" stop-color="var(--art-sheen)" stop-opacity="0.035"/>
      <stop offset="100%" stop-color="var(--art-shadow)" stop-opacity="0.10"/>
    </linearGradient>
    <filter id="svga16edf75-text-glow" x="-20%" y="-20%" width="140%" height="140%">
      <feDropShadow dx="0" dy="0" stdDeviation="2" flood-color="#000000" flood-opacity="0.4"/>
    </filter>
    <filter id="svga16edf75-shadow" x="-30%" y="-30%" width="160%" height="160%">
      <feDropShadow dx="0" dy="2" stdDeviation="3" flood-color="#000000" flood-opacity="0.08"/>
      <feDropShadow dx="0" dy="6" stdDeviation="10" flood-color="#000000" flood-opacity="0.12"/>
    </filter>
    <marker id="svga16edf75-arrowhead" markerWidth="10" markerHeight="7" refX="9" refY="3.5" orient="auto" markerUnits="strokeWidth">
      <polygon points="0 0, 10 3.5, 0 7" fill="var(--muted-text)" opacity="0.6"/>
    </marker>
  </defs>
  <rect width="100%" height="100%" fill="var(--background)" id="CANVAS_BG"/>
  <rect width="100%" height="100%" fill="url(#svga16edf75-napkin-hatch)"/>
  <rect id="UNIVERSAL_EDGE_VIGNETTE" width="100%" height="100%" fill="url(#svga16edf75-universal-edge-vignette)" opacity="0.62"/>
  <text id="TITLE" x="960.0" y="59" font-size="63" font-weight="700" fill="#f1f5f9" style="font-size: 69px; font-family: 'Segoe UI Variable Display', 'Aptos Display', 'Inter', 'Segoe UI', Helvetica, Arial, sans-serif; font-weight: 800; font-kerning: normal; font-feature-settings: &quot;kern&quot; 1, &quot;liga&quot; 1; letter-spacing:-1.2px;" text-anchor="middle" data-final-font-size="69">
    <tspan x="960.0" dy="70.47px">Theories on Vodnjan Preservation</tspan>
  </text>
  <rect id="TITLE_FRAME" x="134" y="59" width="1652" height="103" fill="none"/>
  <g transform="translate(255.0, 630.0)">
    <rect id="CARD_1_BG" x="-225" y="-330" width="450" height="660" rx="18" fill="var(--semantic-uncertain)" stroke="var(--accent-1)" stroke-width="2" fill-opacity="0.4"/>
    <circle cy="-180" r="50" fill="var(--background)" stroke="var(--accent-1)" stroke-width="2" id="ITEM_1_BADGE"/>
    <rect id="ITEM_1_TEXT_BG" x="-213.0" y="-106.0" width="426.0" height="350.8" rx="22" fill="var(--panel)" fill-opacity="0.94" stroke="var(--primary-text)" stroke-opacity="0.12" stroke-width="1.5"/>
    <rect id="COMPARISON_COLUMNS_ART_PANEL_SHEEN_1" x="-213.0" y="-106.0" width="426.0" height="350.8" rx="16" fill="var(--semantic-uncertain)" opacity="0.82" fill-opacity="0.15" stroke="none"/>
    <text id="ITEM_1_HEAD" data-bg-id="ITEM_1_TEXT_BG" text-anchor="middle" font-weight="bold" font-size="36" fill="var(--primary-text)" x="0.0" y="-90.0" fill-opacity="1.0" stroke="none" style="font-size: 31px; font-family: 'Segoe UI Variable Display', 'Aptos Display', 'Inter', 'Segoe UI', Helvetica, Arial, sans-serif; font-weight: 700; font-kerning: normal; font-feature-settings: &quot;kern&quot; 1, &quot;liga&quot; 1; letter-spacing:-0.4px;" data-final-font-size="31">
      <tspan x="0.0" dy="34.40px">Natural Mummification</tspan>
    </text>
    <rect id="ITEM_1_HEAD_FRAME" x="-195" y="-90" width="390" height="51.75" fill="none"/>
    <text id="ITEM_1_BODY" data-bg-id="ITEM_1_TEXT_BG" text-anchor="middle" font-size="21" x="0.0" y="-30.0" fill="var(--primary-text)" font-weight="700" opacity="1" style="font-size: 23px; font-family: 'Segoe UI Variable Text', 'Aptos', 'Inter', 'Segoe UI', Helvetica, Arial, sans-serif; font-weight: 400; font-kerning: normal; font-feature-settings: &quot;kern&quot; 1, &quot;liga&quot; 1;" data-max-lines="20" data-final-font-size="23">
      <tspan x="0.0" dy="54.29px">Dehydration halts decay before</tspan>
      <tspan x="0.0" dy="26.45px">bacteria destroy soft tissues</tspan>
      <tspan x="0.0" dy="26.45px">in specific burial environments</tspan>
    </text>
    <rect id="ITEM_1_BODY_FRAME" x="-190" y="-30" width="380" height="258.8" fill="none"/>
    <circle id="ITEM_1_PAD" cx="0.0" cy="-180.0" r="58" fill="var(--icon-pad-bg)" stroke="var(--semantic-uncertain)" opacity="1" fill-opacity="0.9" stroke-width="2" stroke-opacity="0.72" data-badge-layer="pad"/>
    <circle cx="0.0" cy="-180.0" r="46.4" fill="none" stroke="var(--accent-1)" stroke-width="3" stroke-dasharray="6 4" display="none" data-suppressed-decoration="redundant-badge-ring"/>
    <g id="ITEM_1_ICON" transform="translate(-45.0, -225.0)" data-icon-size="90" stroke-linecap="round" stroke-linejoin="round" data-badge-treatment="clean">
      <g transform="translate(-6.245309734513277,-6.645663716814162) scale(3.20283185840708)">
        <path d="M26.83 2H5.17123C3.42123 2 2.01123 3.41 2.01123 5.16V26.85C2.01123 28.59 3.42123 30.01 5.17123 30.01H26.84C28.58 30.01 30 28.6 30 26.85V5.16C29.99 3.41 28.58 2 26.83 2Z" fill="#F37366"/>
        <path d="M30 19.4053C29.947 19.1749 29.7246 19 29.4808 19C29.2012 19 28.9975 19.2041 28.9975 19.4841C28.9975 19.7641 28.7898 20.0039 28.5102 20.0039C28.2306 20.0039 28.0148 19.7641 28.0148 19.4841V17.5108C28.0148 17.1983 27.7634 16.9961 27.4838 16.9961H27.4739C27.1943 16.9961 27.0046 16.7661 27.0046 16.4861V15.51C27.0046 15.23 26.7566 15 26.477 15H24.2885C23.5795 15 23.0004 15.58 23.0004 16.29V17.4944C23.0004 17.7744 22.7907 18.0044 22.5111 18.0044H21.516C21.2364 18.0044 21.0067 18.2344 21.0067 18.5144V19.499C21.0067 19.779 20.7771 20.009 20.4975 20.009H16.5198C16.2402 20.009 16.0296 20.2199 16.0296 20.4999C16.0296 20.7799 15.7999 21.0099 15.5203 21.0099H2.01123V26.85C2.01123 28.59 3.41915 30.01 5.16658 30.01H26.8446C28.5821 30.01 30 28.6 30 26.85V21.74H29.9924L30 20.8701V19.4053Z" fill="#9D5044"/>
        <path d="M30 19.406C29.9472 19.1752 29.7243 19 29.4799 19C29.1999 19 28.9958 19.2041 28.9958 19.4841C28.9958 19.7641 28.7878 20.0039 28.5078 20.0039C28.2278 20.0039 28.0117 19.7641 28.0117 19.4841V17.5108C28.0117 17.1983 27.7599 16.9961 27.4799 16.9961H27.47C27.19 16.9961 27 16.7661 27 16.4861V15.51C27 15.23 26.7516 15 26.4716 15H24.9989V17.97C24.9989 18.53 25.42 18.99 25.98 18.99C26.537 18.99 26.995 19.445 27 20.0009C26.995 20.5567 26.537 21.0117 25.98 21.0117H16.65C15.79 21.0117 15.09 21.7117 15.09 22.5717C15.09 23.3317 15.71 24 16.47 24H22.99C24.09 24 24.99 24.9 24.99 26C24.99 27.1 24.09 28 22.99 28H11.79C11.62 28 11.48 28.14 11.48 28.31V30.01H26.84C28.58 30.01 30 28.6 30 26.85V21.74H29.9922L30 20.8507V19.406Z" fill="#B35F47"/>
        <path d="M21.6413 4.54002C22.0013 3.80002 23.0613 3.81002 23.4113 4.55002C23.5413 4.83002 23.8813 4.94002 24.1613 4.79002L24.3313 4.70002C24.9913 4.35002 25.7713 4.91002 25.6313 5.64002L25.5913 5.83002C25.5313 6.13002 25.7413 6.42002 26.0513 6.46002L26.2413 6.49002C26.9813 6.59002 27.2813 7.49002 26.7313 8.00002L26.5913 8.13002C26.3613 8.34002 26.3613 8.69002 26.5913 8.90002L26.7313 9.03002C27.2713 9.54002 26.9713 10.44 26.2313 10.54L26.0313 10.56C25.7213 10.6 25.5113 10.88 25.5713 11.18L25.6013 11.37C25.7313 12.1 24.9513 12.65 24.3013 12.3L24.1313 12.21C23.8613 12.06 23.5213 12.17 23.3813 12.45C23.0213 13.19 21.9613 13.18 21.6113 12.44C21.4813 12.16 21.1413 12.05 20.8613 12.2L20.6913 12.29C20.0313 12.64 19.2513 12.08 19.3913 11.35L19.4313 11.16C19.4913 10.86 19.2813 10.57 18.9713 10.53L18.7813 10.5C18.0413 10.4 17.7413 9.50002 18.2913 8.99002L18.4313 8.86002C18.6613 8.65002 18.6613 8.30002 18.4313 8.09002L18.2913 7.96002C17.7513 7.45002 18.0513 6.55002 18.7913 6.45002L18.9813 6.43002C19.2913 6.39002 19.5013 6.11002 19.4413 5.81002L19.4113 5.62002C19.2813 4.89002 20.0613 4.34002 20.7113 4.69002L20.8813 4.78002C21.1713 4.93002 21.5113 4.82002 21.6413 4.54002Z" fill="#FF822D"/>
        <path d="M22.5013 11.98C24.4564 11.98 26.0413 10.4175 26.0413 8.49C26.0413 6.56253 24.4564 5 22.5013 5C20.5462 5 18.9613 6.56253 18.9613 8.49C18.9613 10.4175 20.5462 11.98 22.5013 11.98Z" fill="#F9C23C"/>
        <path d="M12.3411 30.01V22.3519C13.3514 22.3593 15.2091 22.142 16.4332 21.1899C18.0278 19.9496 18.0147 18.1897 18.0075 17.2289C18.007 17.1683 18.0066 17.1108 18.0066 17.0569V15.2508C18.0066 14.3643 17.2864 13.6774 16.2116 13.6774C15.1367 13.6774 14.4608 14.2203 14.4608 15.2508V17.4225C14.4608 18.6635 13.2863 18.7632 12.9538 18.7632H12.3411V14.2718C12.3411 12.341 10.7759 10.7758 8.84505 10.7758C6.91424 10.7758 5.349 12.341 5.349 14.2718V23.714H4.71695C3.69445 23.714 3.20993 23.1715 3.20993 21.8673V17.6103C3.20993 16.4152 2.32523 15.9735 2.01123 15.9477V26.3958C3.09609 27.0596 4.01892 27.2294 5.349 27.2401V30.01H12.3411Z" fill="#00F397"/>
        <path d="M7.87774 15.2884C7.87774 15.0812 7.70985 14.9132 7.50274 14.9132C7.29563 14.9132 7.12774 15.0812 7.12774 15.2884V25.1889C7.12128 25.1886 7.11478 25.1884 7.10824 25.1884H5.6599C4.49361 25.1884 2.91694 24.9488 2.00342 23.5912V24.7361C3.13157 25.7677 4.64258 25.9384 5.6599 25.9384H7.10824C7.11478 25.9384 7.12128 25.9383 7.12774 25.9379V30.01H7.87774V15.2884ZM10.8987 15.2882C10.8987 15.0811 10.7308 14.9132 10.5237 14.9132C10.3166 14.9132 10.1487 15.0811 10.1487 15.2882V30.0078H10.8987V15.2882ZM16.5369 16.2167C16.5369 16.0096 16.369 15.8417 16.1619 15.8417C15.9548 15.8417 15.7869 16.0096 15.7869 16.2167C15.7869 16.4219 15.7934 16.6277 15.7999 16.8334V16.8334C15.8134 17.2632 15.8269 17.6924 15.7813 18.1143C15.7156 18.7217 15.5352 19.1767 15.1416 19.4429C14.6409 19.7817 14.27 19.9475 13.8287 20.0364C13.4279 20.1172 12.9582 20.1374 12.261 20.1412C12.2611 20.3579 12.2611 20.5315 12.2611 20.6838C12.2611 20.7571 12.261 20.8255 12.261 20.8913C12.9644 20.8877 13.5013 20.8675 13.9768 20.7717C14.5405 20.6581 15.0031 20.4422 15.5619 20.0641C16.2277 19.6137 16.4524 18.8845 16.527 18.1949C16.5783 17.7204 16.5622 17.1979 16.5483 16.7435L16.5482 16.7435C16.5424 16.5531 16.5369 16.3746 16.5369 16.2167Z" fill="#00D26A"/>
        <path d="M5.89696 12.7799C6.04105 12.924 6.11637 12.8824 6.26046 12.7383C6.44991 12.5488 6.46352 12.3007 6.26046 12.0937L5.96143 11.8008C5.81734 11.6567 5.58372 11.6567 5.43963 11.8008C5.29554 11.9449 5.29554 12.1785 5.43963 12.3226L5.89696 12.7799ZM12.2656 11.8123C12.4097 11.9564 12.4097 12.19 12.2656 12.3341L11.8083 12.7914C11.6642 12.9355 11.4306 12.9355 11.2865 12.7914C11.1424 12.6473 11.1424 12.4137 11.2865 12.2696L11.7438 11.8123C11.8879 11.6682 12.1215 11.6682 12.2656 11.8123ZM15.0488 13.892C14.9007 13.752 14.6672 13.7586 14.5272 13.9066C14.3872 14.0547 14.3938 14.2883 14.5419 14.4282L15.0119 14.8725C15.16 15.0125 15.3935 15.0059 15.5335 14.8578C15.6735 14.7097 15.6669 14.4762 15.5188 14.3362L15.0488 13.892ZM4.59463 16.2644C4.59463 16.0607 4.75982 15.8955 4.9636 15.8955H5.50527C5.70904 15.8955 5.87424 16.0607 5.87424 16.2644C5.87424 16.4682 5.70904 16.6334 5.50527 16.6334H4.9636C4.75982 16.6334 4.59463 16.4682 4.59463 16.2644ZM4.61233 28.1256C4.61233 27.9219 4.77752 27.7567 4.9813 27.7567H5.52297C5.72674 27.7567 5.89194 27.9219 5.89194 28.1256C5.89194 28.3294 5.72674 28.4946 5.52297 28.4946H4.9813C4.77752 28.4946 4.61233 28.3294 4.61233 28.1256ZM12.145 26.3668C11.9412 26.3668 11.776 26.532 11.776 26.7357C11.776 26.9395 11.9412 27.1047 12.145 27.1047H12.6867C12.8904 27.1047 13.0556 26.9395 13.0556 26.7357C13.0556 26.532 12.8904 26.3668 12.6867 26.3668H12.145ZM16.2248 20.4518C16.3648 20.3037 16.5983 20.2971 16.7464 20.4371L17.2164 20.8814C17.3645 21.0214 17.3711 21.2549 17.2311 21.403C17.0912 21.5511 16.8576 21.5577 16.7095 21.4177L16.2395 20.9734C16.0914 20.8334 16.0849 20.5999 16.2248 20.4518ZM3.79137 19.5434C3.93546 19.6875 3.93546 19.9211 3.79137 20.0652L3.33404 20.5225C3.18995 20.6666 2.88489 20.6752 2.88489 20.3535C2.88489 20.1084 2.90163 19.8797 3.04572 19.7356L3.26957 19.5434C3.41366 19.3993 3.64728 19.3993 3.79137 19.5434ZM7.87775 22.4803V21.3918L7.0018 20.442C6.86365 20.2923 6.63022 20.2828 6.48043 20.421C6.33063 20.5591 6.3212 20.7925 6.45935 20.9423L7.87775 22.4803ZM10.1487 23.9788L11.3435 22.8769C11.4932 22.7388 11.7267 22.7482 11.8648 22.898C12.003 23.0478 11.9935 23.2812 11.8437 23.4194L10.238 24.9003C10.2107 24.9255 10.1805 24.9458 10.1487 24.9613V23.9788ZM10.1487 17.2661V18.004H11.0594C11.2632 18.004 11.4284 17.8388 11.4284 17.635C11.4284 17.4313 11.2632 17.2661 11.0594 17.2661H10.1487Z" fill="#86D72F"/>
      </g>
    </g>
  </g>
  <g transform="translate(726.0, 630.0)">
    <rect id="CARD_2_BG" x="-225" y="-330" width="450" height="660" rx="18" fill="var(--semantic-uncertain)" stroke="var(--accent-2)" stroke-width="2" fill-opacity="0.4"/>
    <circle cy="-180" r="50" fill="var(--background)" stroke="var(--accent-2)" stroke-width="2" id="ITEM_2_BADGE"/>
    <rect id="ITEM_2_TEXT_BG" x="-213.0" y="-106.0" width="426.0" height="350.8" rx="22" fill="var(--panel)" fill-opacity="0.94" stroke="var(--primary-text)" stroke-opacity="0.12" stroke-width="1.5"/>
    <rect id="COMPARISON_COLUMNS_ART_PANEL_SHEEN_2" x="-213.0" y="-106.0" width="426.0" height="350.8" rx="16" fill="var(--semantic-uncertain)" opacity="0.82" fill-opacity="0.15" stroke="none"/>
    <text id="ITEM_2_HEAD" data-bg-id="ITEM_2_TEXT_BG" text-anchor="middle" font-weight="bold" font-size="36" fill="var(--primary-text)" x="0.0" y="-90.0" fill-opacity="1.0" stroke="none" style="font-size: 31px; font-family: 'Segoe UI Variable Display', 'Aptos Display', 'Inter', 'Segoe UI', Helvetica, Arial, sans-serif; font-weight: 700; font-kerning: normal; font-feature-settings: &quot;kern&quot; 1, &quot;liga&quot; 1; letter-spacing:-0.4px;" data-final-font-size="31">
      <tspan x="0.0" dy="34.40px">Historical Intervention</tspan>
    </text>
    <rect id="ITEM_2_HEAD_FRAME" x="-195" y="-90" width="390" height="51.75" fill="none"/>
    <text id="ITEM_2_BODY" data-bg-id="ITEM_2_TEXT_BG" text-anchor="middle" font-size="21" x="0.0" y="-30.0" fill="var(--primary-text)" font-weight="700" opacity="1" style="font-size: 23px; font-family: 'Segoe UI Variable Text', 'Aptos', 'Inter', 'Segoe UI', Helvetica, Arial, sans-serif; font-weight: 400; font-kerning: normal; font-feature-settings: &quot;kern&quot; 1, &quot;liga&quot; 1;" data-max-lines="20" data-final-font-size="23">
      <tspan x="0.0" dy="54.29px">Application of olive oil</tspan>
      <tspan x="0.0" dy="26.45px">and saccharide-based resins</tspan>
      <tspan x="0.0" dy="26.45px">for conservation or presentation</tspan>
    </text>
    <rect id="ITEM_2_BODY_FRAME" x="-190" y="-30" width="380" height="258.8" fill="none"/>
    <circle id="ITEM_2_PAD" cx="0.0" cy="-180.0" r="58" fill="var(--icon-pad-bg)" stroke="var(--semantic-uncertain)" opacity="1" fill-opacity="0.9" stroke-width="2" stroke-opacity="0.72" data-badge-layer="pad"/>
    <circle cx="0.0" cy="-180.0" r="46.4" fill="none" stroke="var(--accent-1)" stroke-width="3" stroke-dasharray="6 4" display="none" data-suppressed-decoration="redundant-badge-ring"/>
    <g id="ITEM_2_ICON" transform="translate(-45.0, -225.0)" data-icon-size="90" stroke-linecap="round" stroke-linejoin="round" data-badge-treatment="clean">
      <g transform="translate(-5.844955752212392,-6.645663716814162) scale(3.20283185840708)" vector-effect="non-scaling-stroke" fill="#f1f5f9" fill-opacity="1.0" stroke="none">
        <path fill="#f1f5f9" d="M28.83 23.17L23 17.33V13a1 1 0 0 0-.29-.71l-10-10a1 1 0 0 0-1.42 0l-9 9a1 1 0 0 0 0 1.42l10 10A1 1 0 0 0 13 23h4.34l5.83 5.84a4 4 0 0 0 5.66-5.66ZM6 10.41l2.29 2.3l1.42-1.42L7.41 9L9 7.41l4.29 4.3l1.42-1.42L10.41 6L12 4.41L18.59 11L11 18.59L4.41 12Zm21.41 17a2 2 0 0 1-2.82 0l-6.13-6.12a1.8 1.8 0 0 0-.71-.29h-4.34l-1-1L20 12.41l1 1v4.34a1 1 0 0 0 .29.7l6.12 6.14a2 2 0 0 1 0 2.82" vector-effect="non-scaling-stroke" stroke="none"/>
      </g>
    </g>
  </g>
  <g transform="translate(1194.0, 630.0)">
    <rect id="CARD_3_BG" x="-225" y="-330" width="450" height="660" rx="18" fill="var(--semantic-uncertain)" stroke="var(--accent-3)" stroke-width="2" fill-opacity="0.4"/>
    <circle cy="-180" r="50" fill="var(--background)" stroke="var(--accent-3)" stroke-width="2" id="ITEM_3_BADGE"/>
    <rect id="ITEM_3_TEXT_BG" x="-213.0" y="-106.0" width="426.0" height="350.8" rx="22" fill="var(--panel)" fill-opacity="0.94" stroke="var(--primary-text)" stroke-opacity="0.12" stroke-width="1.5"/>
    <rect id="COMPARISON_COLUMNS_ART_PANEL_SHEEN_3" x="-213.0" y="-106.0" width="426.0" height="350.8" rx="16" fill="var(--semantic-uncertain)" opacity="0.82" fill-opacity="0.15" stroke="none"/>
    <text id="ITEM_3_HEAD" data-bg-id="ITEM_3_TEXT_BG" text-anchor="middle" font-weight="bold" font-size="36" fill="var(--primary-text)" x="0.0" y="-90.0" fill-opacity="1.0" stroke="none" style="font-size: 29px; font-family: 'Segoe UI Variable Display', 'Aptos Display', 'Inter', 'Segoe UI', Helvetica, Arial, sans-serif; font-weight: 700; font-kerning: normal; font-feature-settings: &quot;kern&quot; 1, &quot;liga&quot; 1; letter-spacing:-0.4px;" data-final-font-size="29">
      <tspan x="0.0" dy="33.85px">Miraculous Incorruptibility</tspan>
    </text>
    <rect id="ITEM_3_HEAD_FRAME" x="-195" y="-90" width="390" height="51.75" fill="none"/>
    <text id="ITEM_3_BODY" data-bg-id="ITEM_3_TEXT_BG" text-anchor="middle" font-size="21" x="0.0" y="-30.0" fill="var(--primary-text)" font-weight="700" opacity="1" style="font-size: 23px; font-family: 'Segoe UI Variable Text', 'Aptos', 'Inter', 'Segoe UI', Helvetica, Arial, sans-serif; font-weight: 400; font-kerning: normal; font-feature-settings: &quot;kern&quot; 1, &quot;liga&quot; 1;" data-max-lines="20" data-final-font-size="23">
      <tspan x="0.0" dy="54.29px">Believers view the preservation</tspan>
      <tspan x="0.0" dy="26.45px">as a sign of sanctity</tspan>
      <tspan x="0.0" dy="26.45px">and exceptional holiness</tspan>
    </text>
    <rect id="ITEM_3_BODY_FRAME" x="-190" y="-30" width="380" height="258.8" fill="none"/>
    <circle id="ITEM_3_PAD" cx="0.0" cy="-180.0" r="58" fill="var(--icon-pad-bg)" stroke="var(--semantic-uncertain)" opacity="1" fill-opacity="0.9" stroke-width="2" stroke-opacity="0.72" data-badge-layer="pad"/>
    <circle cx="0.0" cy="-180.0" r="46.4" fill="none" stroke="var(--accent-2)" stroke-width="3" stroke-dasharray="6 4" display="none" data-suppressed-decoration="redundant-badge-ring"/>
    <g id="ITEM_3_ICON" transform="translate(-45.0, -225.0)" data-icon-size="90" stroke-linecap="round" stroke-linejoin="round" data-badge-treatment="clean">
      <g transform="translate(-5.895000000000007,-6.7028571428571455) scale(3.2314285714285718)">
        <path d="M19.6288 30.0005H11.7156C10.9356 30.0005 10.3036 29.3685 10.3036 28.5884V15.4698C10.3036 14.6897 10.9356 14.0577 11.7156 14.0577H19.6288C20.4089 14.0577 21.0409 14.6897 21.0409 15.4698V28.5884C21.0409 29.3685 20.4089 30.0005 19.6288 30.0005Z" fill="#FFDEA7"/>
        <path d="M16.4787 9.73157H14.866V12.1041H16.4787V9.73157Z" fill="#9B9B9B"/>
        <path d="M20.5408 11.4495H10.8045C9.80758 11.4495 9 12.2579 9 13.254V17.8972C9 18.6878 9.6336 19.3303 10.4201 19.3449C11.2318 19.3602 11.8961 18.6708 11.8961 17.8592V15.5141C11.8961 15.2624 12.1001 15.0585 12.3517 15.0585C12.6034 15.0585 15.2924 15.0585 15.2924 15.0585C15.4841 15.0585 15.6403 15.2139 15.6403 15.4065V16.1712C15.6403 16.9828 16.3047 17.6722 17.1163 17.6569C17.9036 17.6423 18.5364 16.9998 18.5364 16.2092V15.5141C18.5364 15.2624 18.7404 15.0585 18.992 15.0585C19.2437 15.0585 19.4476 15.2624 19.4476 15.5141V20.1524C19.4476 20.9641 20.112 21.6535 20.9236 21.6381C21.7109 21.6236 22.3437 20.9811 22.3437 20.1905V13.2548C22.3445 12.2579 21.537 11.4495 20.5408 11.4495Z" fill="#FFCE7C"/>
        <path d="M18.258 5.57141L16.4082 2.42119C16.078 1.8596 15.2664 1.8596 14.9362 2.42119L13.0807 5.58031C13.0565 5.61996 13.033 5.65962 13.0103 5.70008L12.9998 5.71707C12.7425 6.18479 12.6049 6.72614 12.6268 7.30229C12.6883 8.90694 14.0259 10.2089 15.6313 10.2292C17.3331 10.251 18.7193 8.87862 18.7193 7.18253C18.7193 6.59101 18.5501 6.03832 18.258 5.57141Z" fill="#FFB02E"/>
        <path d="M15.6727 9.03566C16.5911 9.03566 17.3356 8.29115 17.3356 7.37275C17.3356 6.45435 16.5911 5.70984 15.6727 5.70984C14.7543 5.70984 14.0098 6.45435 14.0098 7.37275C14.0098 8.29115 14.7543 9.03566 15.6727 9.03566Z" fill="#FCD53F"/>
      </g>
    </g>
  </g>
  <g transform="translate(1665.0, 630.0)">
    <rect id="CARD_4_BG" x="-225" y="-330" width="450" height="660" rx="18" fill="var(--semantic-uncertain)" stroke="var(--accent-4)" stroke-width="2" fill-opacity="0.4"/>
    <circle cy="-180" r="50" fill="var(--background)" stroke="var(--accent-4)" stroke-width="2" id="ITEM_4_BADGE"/>
    <rect id="ITEM_4_TEXT_BG" x="-213.0" y="-106.0" width="426.0" height="350.8" rx="22" fill="var(--panel)" fill-opacity="0.94" stroke="var(--primary-text)" stroke-opacity="0.12" stroke-width="1.5"/>
    <rect id="COMPARISON_COLUMNS_ART_PANEL_SHEEN_4" x="-213.0" y="-106.0" width="426.0" height="350.8" rx="16" fill="var(--semantic-uncertain)" opacity="0.82" fill-opacity="0.15" stroke="none"/>
    <text id="ITEM_4_HEAD" data-bg-id="ITEM_4_TEXT_BG" text-anchor="middle" font-weight="bold" font-size="36" fill="var(--primary-text)" x="0.0" y="-90.0" fill-opacity="1.0" stroke="none" style="font-size: 31px; font-family: 'Segoe UI Variable Display', 'Aptos Display', 'Inter', 'Segoe UI', Helvetica, Arial, sans-serif; font-weight: 700; font-kerning: normal; font-feature-settings: &quot;kern&quot; 1, &quot;liga&quot; 1; letter-spacing:-0.4px;" data-final-font-size="31">
      <tspan x="0.0" dy="34.40px">Post-Mortem Alterations</tspan>
    </text>
    <rect id="ITEM_4_HEAD_FRAME" x="-195" y="-90" width="390" height="51.75" fill="none"/>
    <text id="ITEM_4_BODY" data-bg-id="ITEM_4_TEXT_BG" text-anchor="middle" font-size="21" x="0.0" y="-30.0" fill="var(--primary-text)" font-weight="700" opacity="1" style="font-size: 23px; font-family: 'Segoe UI Variable Text', 'Aptos', 'Inter', 'Segoe UI', Helvetica, Arial, sans-serif; font-weight: 400; font-kerning: normal; font-feature-settings: &quot;kern&quot; 1, &quot;liga&quot; 1;" data-max-lines="20" data-final-font-size="23">
      <tspan x="0.0" dy="54.29px">Intentional removal of body parts</tspan>
      <tspan x="0.0" dy="26.45px">for relic distribution or medieval</tspan>
      <tspan x="0.0" dy="26.45px">devotional practices</tspan>
    </text>
    <rect id="ITEM_4_BODY_FRAME" x="-190" y="-30" width="380" height="258.8" fill="none"/>
    <circle id="ITEM_4_PAD" cx="0.0" cy="-180.0" r="58" fill="var(--icon-pad-bg)" stroke="var(--semantic-uncertain)" opacity="1" fill-opacity="0.9" stroke-width="2" stroke-opacity="0.72" data-badge-layer="pad"/>
    <circle cx="0.0" cy="-180.0" r="46.4" fill="none" stroke="var(--accent-3)" stroke-width="3" stroke-dasharray="6 4" display="none" data-suppressed-decoration="redundant-badge-ring"/>
    <g id="ITEM_4_ICON" transform="translate(-45.0, -225.0)" data-icon-size="90" stroke-linecap="round" stroke-linejoin="round" data-badge-treatment="clean">
      <g transform="translate(-6.7028571428571455,-7.914642857142862) scale(3.2314285714285718)">
        <path d="M6.44001 29.66L19.0773 17.0226L19 15L18 14L16 13.958L5.74001 24.21C4.43001 25.52 4.43001 27.65 5.74001 28.96L6.44001 29.66Z" fill="#9B9B9B"/>
        <path d="M13 15L12.95 17.03L25.58 29.66L26.22 29.03C27.53 27.72 27.52 25.47 26.2 24.15L15.98 13.93H14L13 15ZM17.05 17.03C17.05 17.621 16.5709 18.1 15.98 18.1C15.389 18.1 14.91 17.621 14.91 17.03C14.91 16.4391 15.389 15.96 15.98 15.96C16.5709 15.96 17.05 16.4391 17.05 17.03Z" fill="#D3D3D3"/>
        <path d="M15.02 9.53C15.02 10.52 14.78 11.48 14.37 12.32L15.99 13.94L12.96 17.04L11.29 15.39C10.45 15.8 9.5 16.04 8.5 16.04C4.9 16.04 2 13.12 2 9.52C2 5.92 4.9 3 8.5 3C12.1 3 15.02 5.92 15.02 9.53ZM5.48 9.52C5.48 11.19 6.84 12.55 8.51 12.55C10.18 12.55 11.54 11.2 11.54 9.52C11.54 7.85 10.18 6.49 8.51 6.49C6.84 6.49 5.48 7.85 5.48 9.52Z" fill="#F8312F"/>
        <path d="M20.71 15.39L19.067 17.017L15.9993 13.9493L17.63 12.31C17.22 11.47 16.98 10.52 16.98 9.52C16.98 5.92 19.9 3 23.5 3C27.1 3 30 5.92 30 9.52C30 13.12 27.1 16.04 23.5 16.04C22.51 16.04 21.55 15.8 20.71 15.39ZM20.46 9.52C20.46 11.2 21.82 12.55 23.49 12.55C25.16 12.55 26.52 11.19 26.52 9.52C26.52 7.85 25.16 6.49 23.49 6.49C21.82 6.49 20.46 7.85 20.46 9.52Z" fill="#F8312F"/>
      </g>
    </g>
  </g>
  <text id="SOURCE_NOTE" x="134.0" y="1058.0" fill="var(--muted-text)" opacity="0.88" style="font-family: var(--font-family); font-size: 20px;">Source: Introduction</text>
  <text id="EDITORIAL_NOTE" x="1786.0" y="1058.0" fill="var(--semantic-uncertain)" opacity="0.92" style="font-family: var(--font-family); font-size: 20px;" text-anchor="end">Interpretations remain disputed; wording reflects source uncertainty.</text>
</svg>
