<?xml version='1.0' encoding='utf-8'?>
<svg xmlns="http://www.w3.org/2000/svg" width="1920" height="1080" viewBox="0 0 1920 1080" data-theme="dark" data-semantic-intent="compare" data-relation-type="comparison" data-site-visual-identity="heritage-amber">
  <style>
        @font-face {
            font-family: 'Inter';
            src: url('assets/fonts/Inter-Regular.ttf') format('truetype');
            font-weight: 400;
            font-style: normal;
            font-display: swap;
        }
        @font-face {
            font-family: 'Inter';
            src: url('assets/fonts/Inter-Bold.ttf') format('truetype');
            font-weight: 600;
            font-style: normal;
            font-display: swap;
        }
        @font-face {
            font-family: 'Inter';
            src: url('assets/fonts/Inter-Bold.ttf') format('truetype');
            font-weight: 800;
            font-style: normal;
            font-display: swap;
        }
        
:root {
    --background: #0f172a;
    --panel: #1e293b;
    --primary-text: #f1f5f9;
    --muted-text: #94a3b8;
    --inverse-text: #0f172a;
    --border: #334155;
    --shadow-color: #000000;
    --icon-pad-bg: #1e293b;
    --art-glow: #7dd3fc;
    --art-glow-opacity: 0.18;
    --art-sheen: #ffffff;
    --art-sheen-opacity: 0.18;
    --art-shadow: #000000;
    --art-shadow-opacity: 0.28;
    --art-muted-line: #64748b;
    --art-panel-tint: #1e293b;
    --semantic-risk: #f87171;
    --semantic-warning: #fb923c;
    --semantic-uncertain: #fbbf24;
    --semantic-evidence: #60a5fa;
    --semantic-claim: #c084fc;
    --semantic-positive: #4ade80;
    --semantic-outcome: #22d3ee;
    --font-family: 'Inter', 'Segoe UI', 'Kalam', Roboto, Helvetica, Arial, sans-serif;
    --radius-xl: 16px;
    --font-family-headline: 'Segoe UI Variable Display', 'Aptos Display', 'Inter', 'Segoe UI', Helvetica, Arial, sans-serif;
    --font-family-body: 'Segoe UI Variable Text', 'Aptos', 'Inter', 'Segoe UI', Helvetica, Arial, sans-serif;
    --font-heading: var(--font-family-headline);
    --font-body: var(--font-family-body);
    --font-size-h1: 64px;
    --font-size-h2: 42px;
    --font-size-h3: 29px;
    --font-size-body: 21px;
    --font-size-caption: 17px;
    --secondary-text: var(--muted-text);
    --panel-border: var(--border);
    --font-weight-normal: 400;
    --font-weight-medium: 500;
    --font-weight-semibold: 600;
    --font-weight-bold: 700;
    --spacing-gutter-pct: 0.07;
    --spacing-top-pct: 0.15;
    --spacing-bottom-pct: 0.07;
    --spacing-title-y-pct: 0.055;
    --accent-1: #fbbf24;
    --accent-2: #fb923c;
    --accent-3: #f59e0b;
    --accent-4: #fca5a5;
    --accent-5: #d6a66f;
    --accent-6: #7dd3fc;
}
:root[data-theme="dark"] {
    --background: #0f172a;
    --panel: #1e293b;
    --primary-text: #f1f5f9;
    --muted-text: #94a3b8;
    --inverse-text: #0f172a;
    --border: #334155;
    --shadow-color: #000000;
    --icon-pad-bg: #1e293b;
    --art-glow: #7dd3fc;
    --art-glow-opacity: 0.18;
    --art-sheen: #ffffff;
    --art-sheen-opacity: 0.18;
    --art-shadow: #000000;
    --art-shadow-opacity: 0.28;
    --art-muted-line: #64748b;
    --art-panel-tint: #1e293b;
    --semantic-risk: #f87171;
    --semantic-warning: #fb923c;
    --semantic-uncertain: #fbbf24;
    --semantic-evidence: #60a5fa;
    --semantic-claim: #c084fc;
    --semantic-positive: #4ade80;
    --semantic-outcome: #22d3ee;
    --accent-1: #fbbf24;
    --accent-2: #fb923c;
    --accent-3: #f59e0b;
    --accent-4: #fca5a5;
    --accent-5: #d6a66f;
    --accent-6: #7dd3fc;
}
:root[data-theme="light"] {
    --background: #f8fafc;
    --panel: #ffffff;
    --primary-text: #0f172a;
    --muted-text: #64748b;
    --inverse-text: #ffffff;
    --border: #e2e8f0;
    --shadow-color: #000000;
    --icon-pad-bg: #1e293b;
    --art-glow: #0891b2;
    --art-glow-opacity: 0.10;
    --art-sheen: #ffffff;
    --art-sheen-opacity: 0.34;
    --art-shadow: #0f172a;
    --art-shadow-opacity: 0.14;
    --art-muted-line: #94a3b8;
    --art-panel-tint: #f1f5f9;
    --semantic-risk: #b91c1c;
    --semantic-warning: #c2410c;
    --semantic-uncertain: #a16207;
    --semantic-evidence: #1d4ed8;
    --semantic-claim: #6d28d9;
    --semantic-positive: #15803d;
    --semantic-outcome: #0e7490;
    --accent-1: #a16207;
    --accent-2: #c2410c;
    --accent-3: #b45309;
    --accent-4: #b91c1c;
    --accent-5: #92400e;
    --accent-6: #0369a1;
}</style>
  <rect x="0" y="0" width="1.92E+3" height="1.08E+3" fill="#252a34" stroke="none" id="programmatic_background"/>
  <line id="HEADER_DECOR" x1="960.0" x2="1080.0" y1="135.0" y2="135.0" stroke="var(--accent-1)" stroke-width="6" stroke-linecap="round"/>
  <defs>
    <pattern id="svg843672a6-napkin-hatch" patternUnits="userSpaceOnUse" width="12" height="12">
      <path d="M -3 12 L 12 -3 M 0 15 L 15 0" fill="none" stroke="var(--primary-text)" stroke-width="1" stroke-opacity="0.05"/>
    </pattern>
    <filter id="svg843672a6-shadow" x="-30%" y="-30%" width="160%" height="160%">
      <feDropShadow dx="0" dy="2" stdDeviation="3" flood-color="#000000" flood-opacity="0.08"/>
      <feDropShadow dx="0" dy="6" stdDeviation="10" flood-color="#000000" flood-opacity="0.12"/>
    </filter>
    <marker id="svg843672a6-arrowhead" markerWidth="10" markerHeight="10" refX="9" refY="5" orient="auto">
      <path d="M 0 0 L 10 5 L 0 10 Z" fill="var(--accent-1)"/>
    </marker>
    <filter id="svg843672a6-text-glow" x="-20%" y="-20%" width="140%" height="140%">
      <feDropShadow dx="0" dy="0" stdDeviation="2" flood-color="#000000" flood-opacity="0.4"/>
    </filter>
    <radialGradient id="svg843672a6-universal-edge-vignette" cx="50%" cy="50%" r="72%">
      <stop offset="0%" stop-color="var(--background)" stop-opacity="0"/>
      <stop offset="72%" stop-color="var(--background)" stop-opacity="0.12"/>
      <stop offset="100%" stop-color="var(--primary-text)" stop-opacity="0.08"/>
    </radialGradient>
    <linearGradient id="svg843672a6-universal-surface-sheen" x1="0%" y1="0%" x2="100%" y2="100%">
      <stop offset="0%" stop-color="var(--art-sheen)" stop-opacity="var(--art-sheen-opacity)"/>
      <stop offset="46%" stop-color="var(--art-sheen)" stop-opacity="0.035"/>
      <stop offset="100%" stop-color="var(--art-panel-tint)" stop-opacity="0.14"/>
    </linearGradient>
    <radialGradient id="svg843672a6-universal-icon-aura" cx="50%" cy="42%" r="64%">
      <stop offset="0%" stop-color="var(--art-glow)" stop-opacity="var(--art-glow-opacity)"/>
      <stop offset="100%" stop-color="var(--background)" stop-opacity="0"/>
    </radialGradient>
    <linearGradient id="svg843672a6-myth-card-sheen" x1="0%" y1="0%" x2="100%" y2="100%">
      <stop offset="0%" stop-color="var(--inverse-text)" stop-opacity="0.18"/>
      <stop offset="56%" stop-color="var(--inverse-text)" stop-opacity="0.03"/>
      <stop offset="100%" stop-color="var(--background)" stop-opacity="0.12"/>
    </linearGradient>
  </defs>
  <rect width="100%" height="100%" fill="var(--background)" id="CANVAS_BG"/>
  <rect width="100%" height="100%" fill="url(#svg843672a6-napkin-hatch)"/>
  <rect id="UNIVERSAL_EDGE_VIGNETTE" width="100%" height="100%" fill="url(#svg843672a6-universal-edge-vignette)" opacity="0.62"/>
  <text id="TITLE" x="960.0" y="59" text-anchor="middle" font-weight="800" font-size="56" fill="#f1f5f9" style="font-size: 69px; font-family: 'Segoe UI Variable Display', 'Aptos Display', 'Inter', 'Segoe UI', Helvetica, Arial, sans-serif; font-weight: 800; font-kerning: normal; font-feature-settings: &quot;kern&quot; 1, &quot;liga&quot; 1; letter-spacing:-1.2px;" data-final-font-size="69">
    <tspan x="960.0" dy="70.47px">Scientific Purpose vs. Visitor Perception</tspan>
  </text>
  <rect id="TITLE_FRAME" x="134" y="59" width="1652" height="103" fill="none"/>
  <g transform="translate(0, 190) scale(1.0)">
    <path d="M 920 -8 C 950 80 950 720 920 808" stroke="var(--primary-text)" stroke-width="2" stroke-opacity="0.10" fill="none"/>
    <path d="M 1000 -8 C 970 80 970 720 1000 808" stroke="var(--primary-text)" stroke-width="2" stroke-opacity="0.10" fill="none"/>
    <text x="480.0" y="0" text-anchor="middle" font-weight="900" font-size="52" fill="var(--accent-1)">MYTHS</text>
    <text x="1440.0" y="0" text-anchor="middle" font-weight="900" font-size="52" fill="var(--accent-2)">REALITY</text>
    <g transform="translate(480.0, 200.0)">
      <rect id="ITEM_1_ACCENT_BG" x="-400" y="-180.0" width="800" height="395.0" rx="24" fill="var(--semantic-claim)" fill-opacity="0.15" stroke="none"/>
      <rect id="ITEM_1_BG" x="-400" y="-180.0" width="800" height="395.0" rx="24" fill="var(--panel)" stroke="var(--accent-1)" filter="url(#svg843672a6-shadow)" stroke-width="3"/>
      <rect x="-388" y="-168.0" width="776" height="371.0" rx="22" fill="url(#svg843672a6-myth-card-sheen)" opacity="0.92"/>
      <circle id="ITEM_1_PAD" cx="-330" cy="-100" r="50" fill="var(--icon-pad-bg)" stroke="var(--semantic-claim)" stroke-width="2" stroke-opacity="0.72" opacity="1" fill-opacity="0.9" data-badge-layer="pad"/>
      <circle id="ITEM_1_PAD_INNER" cx="-330" cy="-100" r="39.00" fill="var(--semantic-claim)" fill-opacity="0.12" stroke="none" data-badge-layer="tint"/>
      <circle cx="-330" cy="-100" r="36" fill="none" stroke="var(--accent-1)" stroke-width="3" stroke-dasharray="6 4" display="none" data-suppressed-decoration="redundant-badge-ring"/>
      <g id="ITEM_1_ICON" transform="translate(-360, -130)" data-icon-size="60" stroke-linecap="round" stroke-linejoin="round" data-badge-treatment="clean">
        <g transform="translate(-14.57142857142857,-14.571428571428571) scale(2.7857142857142856)">
          <path d="M8 26H27V4C27 2.89543 26.1046 2 25 2H8V26Z" fill="#533566"/>
          <path d="M6 27H27V29H6V27Z" fill="#D3D3D3"/>
          <path d="M12.5 7C12.5 6.44772 12.9477 6 13.5 6H18.5C19.0523 6 19.5 6.44772 19.5 7V9C19.5 9.55228 19.0523 10 18.5 10H13.5C12.9477 10 12.5 9.55228 12.5 9V7Z" fill="white"/>
          <path d="M6.5 2C5.67157 2 5 2.67157 5 3.5V28H6C6 27.4477 6.44772 27 7 27H8V2H6.5Z" fill="#321B41"/>
          <path d="M6.5 26C5.67157 26 5 26.6716 5 27.5V28.5C5 29.3284 5.67157 30 6.5 30H25.5C26.1531 30 26.7087 29.5826 26.9146 29H7C6.44772 29 6 28.5523 6 28C6 27.4477 6.44772 27 7 27H27V26H6.5Z" fill="#6B438B"/>
          <path d="M23 2H24V30H23V2Z" fill="#6B438B"/>
        </g>
      </g>
      <text id="ITEM_1_HEAD" x="0.0" y="-130.0" text-anchor="middle" font-weight="bold" font-size="32" fill="var(--semantic-claim)" data-bg-id="ITEM_1_BG" fill-opacity="1.0" stroke="none" style="font-size: 31px; font-family: 'Segoe UI Variable Display', 'Aptos Display', 'Inter', 'Segoe UI', Helvetica, Arial, sans-serif; font-weight: 700; font-kerning: normal; font-feature-settings: &quot;kern&quot; 1, &quot;liga&quot; 1; letter-spacing:-0.4px;" data-final-font-size="31">
        <tspan x="0.0" dy="42.12px">Institutional Intent</tspan>
      </text>
      <rect id="ITEM_1_HEAD_FRAME" x="-310" y="-130" width="620" height="60" fill="none"/>
      <text id="ITEM_1_BODY" x="0.0" y="-50.0" text-anchor="middle" font-size="24" fill="var(--primary-text)" opacity="0.88" data-bg-id="ITEM_1_BG" style="font-size: 23px; font-family: 'Segoe UI Variable Text', 'Aptos', 'Inter', 'Segoe UI', Helvetica, Arial, sans-serif; font-weight: 400; font-kerning: normal; font-feature-settings: &quot;kern&quot; 1, &quot;liga&quot; 1;" data-final-font-size="23">
        <tspan x="0.0" dy="65.55px">Preserved for zoological research and anatomical study</tspan>
      </text>
      <rect id="ITEM_1_BODY_FRAME" x="-310" y="-50" width="620" height="230" fill="none"/>
    </g>
    <g transform="translate(1440.0, 200.0)">
      <rect id="ITEM_2_ACCENT_BG" x="-400" y="-180.0" width="800" height="395.0" rx="24" fill="var(--semantic-claim)" fill-opacity="0.15" stroke="none"/>
      <rect id="ITEM_2_BG" x="-400" y="-180.0" width="800" height="395.0" rx="24" fill="var(--panel)" stroke="var(--accent-2)" filter="url(#svg843672a6-shadow)" stroke-width="3"/>
      <rect x="-388" y="-168.0" width="776" height="371.0" rx="22" fill="url(#svg843672a6-myth-card-sheen)" opacity="0.92"/>
      <circle id="ITEM_2_PAD" cx="330" cy="-100" r="50" fill="var(--icon-pad-bg)" stroke="var(--semantic-claim)" stroke-width="2" stroke-opacity="0.72" opacity="1" fill-opacity="0.9" data-badge-layer="pad"/>
      <circle id="ITEM_2_PAD_INNER" cx="330" cy="-100" r="39.00" fill="var(--semantic-claim)" fill-opacity="0.12" stroke="none" data-badge-layer="tint"/>
      <circle cx="330" cy="-100" r="36" fill="none" stroke="var(--accent-2)" stroke-width="3" stroke-dasharray="6 4" display="none" data-suppressed-decoration="redundant-badge-ring"/>
      <g id="ITEM_2_ICON" transform="translate(300, -130)" data-icon-size="60" stroke-linecap="round" stroke-linejoin="round" data-badge-treatment="clean">
        <g transform="translate(-14.571428571428571,-27.107142857142854) scale(2.7857142857142856)">
          <path d="M5.5 11C5.22386 11 5 11.2239 5 11.5V13H9V11.5C9 11.2239 8.77614 11 8.5 11H5.5Z" fill="#D3D3D3"/>
          <path d="M21.5 11C21.2239 11 21 11.2239 21 11.5V13H27V11.5C27 11.2239 26.7761 11 26.5 11H21.5Z" fill="#D3D3D3"/>
          <path d="M2 14C2 12.8954 2.89543 12 4 12H28C29.1046 12 30 12.8954 30 14V16.5L28 22L30 27.5V28C30 29.1046 29.1046 30 28 30H4C2.89543 30 2 29.1046 2 28V27.5L3.5 22L2 16.5V14Z" fill="#E6E6E6"/>
          <path d="M2 16.5C2 16.2239 2.22386 16 2.5 16H29.5C29.7761 16 30 16.2239 30 16.5V27.5C30 27.7761 29.7761 28 29.5 28H2.5C2.22386 28 2 27.7761 2 27.5V16.5Z" fill="#533566"/>
          <path d="M22 22C22 25.3137 19.3137 28 16 28C12.6863 28 10 25.3137 10 22C10 18.6863 12.6863 16 16 16C19.3137 16 22 18.6863 22 22Z" fill="#321B41"/>
          <path d="M16 27C18.7614 27 21 24.7614 21 22C21 19.2386 18.7614 17 16 17C13.2386 17 11 19.2386 11 22C11 24.7614 13.2386 27 16 27ZM16 29C12.134 29 9 25.866 9 22C9 18.134 12.134 15 16 15C19.866 15 23 18.134 23 22C23 25.866 19.866 29 16 29Z" fill="#9B9B9B"/>
          <path d="M18.5 22C18.5 23.3807 17.3807 24.5 16 24.5C14.6193 24.5 13.5 23.3807 13.5 22C13.5 20.6193 14.6193 19.5 16 19.5C17.3807 19.5 18.5 20.6193 18.5 22Z" fill="#433B6B"/>
          <path d="M19.0825 19.875C19.4967 20.5924 19.4448 21.3979 18.9665 21.674C18.4882 21.9501 17.7647 21.5924 17.3505 20.875C16.9363 20.1575 16.9882 19.3521 17.4665 19.0759C17.9448 18.7998 18.6683 19.1575 19.0825 19.875Z" fill="white"/>
        </g>
      </g>
      <text id="ITEM_2_HEAD" x="0.0" y="-130.0" text-anchor="middle" font-weight="bold" font-size="32" fill="var(--semantic-claim)" data-bg-id="ITEM_2_BG" fill-opacity="1.0" stroke="none" style="font-size: 31px; font-family: 'Segoe UI Variable Display', 'Aptos Display', 'Inter', 'Segoe UI', Helvetica, Arial, sans-serif; font-weight: 700; font-kerning: normal; font-feature-settings: &quot;kern&quot; 1, &quot;liga&quot; 1; letter-spacing:-0.4px;" data-final-font-size="31">
        <tspan x="0.0" dy="42.12px">Visitor Experience</tspan>
      </text>
      <rect id="ITEM_2_HEAD_FRAME" x="-310" y="-130" width="620" height="60" fill="none"/>
      <text id="ITEM_2_BODY" x="0.0" y="-50.0" text-anchor="middle" font-size="24" fill="var(--primary-text)" opacity="0.88" data-bg-id="ITEM_2_BG" style="font-size: 23px; font-family: 'Segoe UI Variable Text', 'Aptos', 'Inter', 'Segoe UI', Helvetica, Arial, sans-serif; font-weight: 400; font-kerning: normal; font-feature-settings: &quot;kern&quot; 1, &quot;liga&quot; 1;" data-final-font-size="23">
        <tspan x="0.0" dy="65.55px">Described as eerie and haunting by travelers</tspan>
      </text>
      <rect id="ITEM_2_BODY_FRAME" x="-310" y="-50" width="620" height="230" fill="none"/>
    </g>
    <g transform="translate(480.0, 600.0)">
      <rect id="ITEM_3_ACCENT_BG" x="-400" y="-180.0" width="800" height="395.0" rx="24" fill="var(--semantic-evidence)" fill-opacity="0.15" stroke="none"/>
      <rect id="ITEM_3_BG" x="-400" y="-180.0" width="800" height="395.0" rx="24" fill="var(--panel)" stroke="var(--accent-3)" filter="url(#svg843672a6-shadow)" stroke-width="3"/>
      <rect x="-388" y="-168.0" width="776" height="371.0" rx="22" fill="url(#svg843672a6-myth-card-sheen)" opacity="0.92"/>
      <circle id="ITEM_3_PAD" cx="-330" cy="-100" r="50" fill="var(--icon-pad-bg)" stroke="var(--semantic-evidence)" stroke-width="2" stroke-opacity="0.72" opacity="1" fill-opacity="0.9" data-badge-layer="pad"/>
      <circle id="ITEM_3_PAD_INNER" cx="-330" cy="-100" r="39.00" fill="var(--semantic-evidence)" fill-opacity="0.12" stroke="none" data-badge-layer="tint"/>
      <circle cx="-330" cy="-100" r="36" fill="none" stroke="var(--accent-3)" stroke-width="3" stroke-dasharray="6 4" display="none" data-suppressed-decoration="redundant-badge-ring"/>
      <g id="ITEM_3_ICON" transform="translate(-360, -130)" data-icon-size="60" stroke-linecap="round" stroke-linejoin="round" data-badge-treatment="clean">
        <g transform="translate(-9.0,-9.0) scale(5.571428571428571)" vector-effect="non-scaling-stroke" stroke-width="2.43" stroke-linecap="round" stroke-linejoin="round" stroke-opacity="1.0">
          <path id="Vector" fill="none" d="M1.5 5h11v7c0 0.2652 -0.1054 0.5196 -0.2929 0.7071S11.7652 13 11.5 13h-9c-0.26522 0 -0.51957 -0.1054 -0.70711 -0.2929C1.60536 12.5196 1.5 12.2652 1.5 12V5Z" vector-effect="non-scaling-stroke" stroke="#f1f5f9"/>
          <path id="Vector_2" fill="none" d="M13.5 4V2c0 -0.55228 -0.4477 -1 -1 -1l-11 0c-0.552285 0 -1 0.44772 -1 1v2c0 0.55228 0.447715 1 1 1l11 0c0.5523 0 1 -0.44772 1 -1Z" vector-effect="non-scaling-stroke" stroke="#f1f5f9"/>
          <path id="Vector_3" stroke="#f1f5f9" d="M1.5 5h11v7c0 0.2652 -0.1054 0.5196 -0.2929 0.7071S11.7652 13 11.5 13h-9c-0.26522 0 -0.51957 -0.1054 -0.70711 -0.2929C1.60536 12.5196 1.5 12.2652 1.5 12V5v0Z" vector-effect="non-scaling-stroke" fill="none"/>
          <path id="Vector_4" stroke="#f1f5f9" d="M13.5 4V2c0 -0.55228 -0.4477 -1 -1 -1l-11 0c-0.552285 0 -1 0.44772 -1 1v2c0 0.55228 0.447715 1 1 1l11 0c0.5523 0 1 -0.44772 1 -1Z" vector-effect="non-scaling-stroke" fill="none"/>
          <path id="Vector_5" stroke="#f1f5f9" d="M5.5 8h3" vector-effect="non-scaling-stroke" fill="none" display="none"/>
        </g>
      </g>
      <text id="ITEM_3_HEAD" x="0.0" y="-130.0" text-anchor="middle" font-weight="bold" font-size="32" fill="var(--semantic-evidence)" data-bg-id="ITEM_3_BG" fill-opacity="1.0" stroke="none" style="font-size: 31px; font-family: 'Segoe UI Variable Display', 'Aptos Display', 'Inter', 'Segoe UI', Helvetica, Arial, sans-serif; font-weight: 700; font-kerning: normal; font-feature-settings: &quot;kern&quot; 1, &quot;liga&quot; 1; letter-spacing:-0.4px;" data-final-font-size="31">
        <tspan x="0.0" dy="42.12px">Historical Context</tspan>
      </text>
      <rect id="ITEM_3_HEAD_FRAME" x="-310" y="-130" width="620" height="60" fill="none"/>
      <text id="ITEM_3_BODY" x="0.0" y="-50.0" text-anchor="middle" font-size="24" fill="var(--primary-text)" opacity="0.88" data-bg-id="ITEM_3_BG" style="font-size: 23px; font-family: 'Segoe UI Variable Text', 'Aptos', 'Inter', 'Segoe UI', Helvetica, Arial, sans-serif; font-weight: 400; font-kerning: normal; font-feature-settings: &quot;kern&quot; 1, &quot;liga&quot; 1;" data-final-font-size="23">
        <tspan x="0.0" dy="65.55px">Dates back to the First World War period</tspan>
      </text>
      <rect id="ITEM_3_BODY_FRAME" x="-310" y="-50" width="620" height="230" fill="none"/>
    </g>
    <g transform="translate(1440.0, 600.0)">
      <rect id="ITEM_4_ACCENT_BG" x="-400" y="-180.0" width="800" height="395.0" rx="24" fill="var(--semantic-outcome)" fill-opacity="0.15" stroke="none"/>
      <rect id="ITEM_4_BG" x="-400" y="-180.0" width="800" height="395.0" rx="24" fill="var(--panel)" stroke="var(--accent-4)" filter="url(#svg843672a6-shadow)" stroke-width="3"/>
      <rect x="-388" y="-168.0" width="776" height="371.0" rx="22" fill="url(#svg843672a6-myth-card-sheen)" opacity="0.92"/>
      <circle id="ITEM_4_PAD" cx="330" cy="-100" r="50" fill="var(--icon-pad-bg)" stroke="var(--semantic-outcome)" stroke-width="2" stroke-opacity="0.72" opacity="1" fill-opacity="0.9" data-badge-layer="pad"/>
      <circle id="ITEM_4_PAD_INNER" cx="330" cy="-100" r="39.00" fill="var(--semantic-outcome)" fill-opacity="0.12" stroke="none" data-badge-layer="tint"/>
      <circle cx="330" cy="-100" r="36" fill="none" stroke="var(--accent-4)" stroke-width="3" stroke-dasharray="6 4" display="none" data-suppressed-decoration="redundant-badge-ring"/>
      <g id="ITEM_4_ICON" transform="translate(300, -130)" data-icon-size="60" stroke-linecap="round" stroke-linejoin="round" data-badge-treatment="clean">
        <g transform="translate(-9.0,-9.0) scale(3.25)" vector-effect="non-scaling-stroke" stroke-width="2.43" stroke-linecap="round" stroke-linejoin="round" stroke-opacity="1.0">
          <path fill="none" fill-rule="evenodd" d="M23.987 21.8092c0.0087 -0.5074 -0.0982 -1.01 -0.3126 -1.47 -0.2144 -0.4599 -0.5306 -0.8649 -0.9248 -1.1845 -0.2628 -0.1555 -0.5494 -0.2668 -0.8483 -0.3293 1.6067 -1.2574 1.3971 -4.2611 -0.7384 -4.7002 -0.0859 -0.01 -0.1724 0.0123 -0.2428 0.0625 -0.0705 0.0502 -0.1197 0.1248 -0.1384 0.2092 -0.0186 0.0844 -0.0052 0.1728 0.0375 0.2479 0.0428 0.0752 0.1119 0.1318 0.194 0.159 1.6665 0.3991 1.4969 3.9917 -1.5867 3.353 -1.926 -0.4291 -1.5867 -3.852 0.9979 -3.6624 0.0739 -0.0039 0.1439 -0.0342 0.1974 -0.0853 0.0535 -0.0511 0.0868 -0.1197 0.0941 -0.1933 0.0072 -0.0737 -0.0122 -0.1475 -0.0546 -0.208 -0.0425 -0.0606 -0.1053 -0.1039 -0.177 -0.1221 -0.6165 -0.1016 -1.2493 0.0056 -1.7979 0.3046s-0.9817 0.7727 -1.2304 1.3458c-0.2488 0.5732 -0.299 1.213 -0.1427 1.8179 0.1563 0.605 0.5102 1.1404 1.0055 1.5213 -0.4534 0.1536 -0.8622 0.4158 -1.191 0.7636 -0.3287 0.3479 -0.5674 0.771 -0.6951 1.2323 -0.3318 -0.662 -0.8971 -1.1775 -1.5867 -1.447 -1.1377 -0.4391 -0.9979 -0.1198 -0.469 -0.5689 2.0657 -1.6964 1.7563 -5.748 -0.998 -6.3069 -0.0859 -0.0099 -0.1724 0.0124 -0.2428 0.0626 -0.0704 0.0502 -0.1197 0.1247 -0.1383 0.2092 -0.0186 0.0844 -0.0053 0.1727 0.0375 0.2479 0.0427 0.0752 0.1118 0.1318 0.1939 0.1589 2.6944 0.6786 2.1256 6.2271 -2.3052 5.1493 -2.89397 -0.5987 -2.47483 -5.8977 1.437 -5.5784 0.0394 0.0039 0.0791 0.0001 0.1169 -0.0113 0.0378 -0.0114 0.073 -0.0302 0.1036 -0.0552 0.0306 -0.025 0.0559 -0.0558 0.0746 -0.0906 0.0187 -0.0349 0.0303 -0.073 0.0343 -0.1123 0.0039 -0.0393 0 -0.079 -0.0114 -0.1169 -0.0114 -0.0378 -0.0301 -0.073 -0.0552 -0.1036 -0.025 -0.0306 -0.0558 -0.0559 -0.0906 -0.0746s-0.073 -0.0303 -0.1123 -0.0342c-0.8654 -0.1322 -1.7498 0.0383 -2.50404 0.4827 -0.75423 0.4444 -1.33201 1.1354 -1.63578 1.9564 -0.30377 0.821 -0.31493 1.7217 -0.03159 2.55 0.28333 0.8283 0.84381 1.5334 1.58679 1.9964 -0.58711 0.2472 -1.13244 0.5839 -1.61664 0.9979 -0.99793 0.8482 -0.36923 0.948 -0.89813 -0.0898 -0.26537 -0.5467 -0.72938 -0.9714 -1.29731 -1.1876 -0.44907 -0.1397 -0.37921 -0.0798 -0.31934 -0.1297 0.5532 -0.4829 0.90521 -1.1557 0.9865 -1.8855 0.0813 -0.7298 -0.11403 -1.4635 -0.54741 -2.0563 -0.42911 -0.489 -1.49689 -1.0778 -1.6366 -0.4591 -0.01559 0.0883 0.00238 0.1792 0.05038 0.2549 0.04801 0.0757 0.12258 0.1308 0.20908 0.1543 1.25739 0.3493 1.25739 2.395 0.25946 3.1534 -0.27843 0.165 -0.58836 0.2698 -0.90979 0.3076 -0.32143 0.0379 -0.64721 0.0079 -0.95633 -0.088 -1.926 -0.4291 -1.59669 -3.852 0.99793 -3.6624 0.07387 -0.0039 0.1439 -0.0342 0.19738 -0.0853s0.08687 -0.1197 0.09411 -0.1933c0.00724 -0.0737 -0.01214 -0.1475 -0.05464 -0.208 -0.04249 -0.0606 -0.10528 -0.1039 -0.17698 -0.1221 -0.61649 -0.1016 -1.24925 0.0056 -1.79787 0.3046 -0.54862 0.299 -0.98166 0.7727 -1.23041 1.3458 -0.248746 0.5732 -0.298953 1.213 -0.14265 1.8179 0.1563 0.605 0.51016 1.1404 1.00543 1.5213 -0.60977 0.2208 -1.143218 0.6122 -1.536812 1.1277 -0.210347 0.2831 -0.361222 0.6059 -0.4435426 0.9489 -0.0823202 0.343 -0.0943832 0.6991 -0.0354628 1.0469 0.0129596 0.0713 0.0505251 0.1358 0.1061474 0.1822 0.055622 0.0464 0.125772 0.0718 0.198221 0.0718 0.072448 0 0.142598 -0.0254 0.19822 -0.0718 0.055623 -0.0464 0.093188 -0.1109 0.106148 -0.1822 0.188957 -0.5981 0.533331 -1.1353 0.997931 -1.5568 0.33652 -0.4288 0.74105 -0.7996 1.19751 -1.0977 0.59708 0.1316 1.21734 0.1145 1.80625 -0.0499 0.60026 0.2621 1.12024 0.6788 1.50687 1.2075 0.35136 0.417 0.64351 0.8804 0.8682 1.3772 -0.22448 0.5494 -0.30353 1.1475 -0.22953 1.7364 0.01296 0.0712 0.05053 0.1357 0.10615 0.1821 0.05562 0.0464 0.12577 0.0719 0.19822 0.0719 0.07245 0 0.1426 -0.0255 0.19822 -0.0719 0.05563 -0.0464 0.09319 -0.1109 0.10615 -0.1821 0.06855 -0.5905 0.30006 -1.1503 0.66861 -1.6167 0.55089 -0.7165 1.18016 -1.3692 1.87611 -1.9459l0.65864 -0.4391c0.045 -0.0133 0.0861 -0.0372 0.1197 -0.0699 0.7772 0.1876 1.5879 0.1876 2.3651 0 1.1231 0.5156 2.0529 1.3755 2.6545 2.4549 0.312 0.5035 0.5696 1.0387 0.7684 1.5967 0.0277 0.079 0.0828 0.1454 0.1554 0.1871 0.0725 0.0418 0.1576 0.0561 0.2398 0.0404 0.0822 -0.0157 0.156 -0.0604 0.2081 -0.126 0.052 -0.0656 0.0787 -0.1476 0.0753 -0.2312 -0.0553 -0.4422 -0.1454 -0.8793 -0.2694 -1.3073 0.1297 -0.1896 -0.0599 -0.2495 0.4191 -0.9979 0.0699 -0.0998 0.6087 -0.6886 0.6786 -0.7685 0.3315 -0.4334 0.7369 -0.805 1.1975 -1.0977 0.5875 0.1267 1.1969 0.1095 1.7763 -0.0499 0.5761 0.2852 1.0654 0.7194 1.4171 1.2574 0.3709 0.4524 0.6735 0.9568 0.8981 1.4969 0.0252 0.09 0.085 0.1663 0.1664 0.2122 0.0814 0.0458 0.1777 0.0574 0.2677 0.0323 0.09 -0.0251 0.1663 -0.085 0.2122 -0.1664 0.0458 -0.0814 0.0574 -0.1777 0.0323 -0.2677Z" clip-rule="evenodd" vector-effect="non-scaling-stroke" stroke="#f1f5f9"/>
          <path fill="none" fill-rule="evenodd" d="M3.41972 2.12011c0 -0.72848 0.2894 -0.7684 0 -0.99792 -0.2894 -0.229528 -0.38919 -0.139715 -0.60874 0.51892 -0.12973 0.479 -0.15967 1.24741 -0.21954 1.53681 -0.63298 3.14781 -0.73081 6.37981 -0.2894 9.56018 0.00328 0.0478 0.01594 0.0945 0.03727 0.1375 0.02133 0.0429 0.05091 0.0812 0.08705 0.1127 0.03614 0.0315 0.07814 0.0556 0.12358 0.0709 0.04545 0.0153 0.09346 0.0214 0.14129 0.0182 0.04783 -0.0033 0.09455 -0.016 0.13749 -0.0373 0.04294 -0.0213 0.08126 -0.0509 0.11276 -0.0871 0.03151 -0.0361 0.05559 -0.0781 0.07087 -0.1235 0.01528 -0.0455 0.02145 -0.0935 0.01818 -0.1413 -0.16965 -2.98383 0.37921 -10.129 0.38919 -10.56809Z" clip-rule="evenodd" vector-effect="non-scaling-stroke" stroke="#f1f5f9"/>
          <path fill="none" fill-rule="evenodd" d="M19.2966 4.65485c-5.0514 -0.30876 -10.11703 -0.30876 -15.16849 0 -0.55884 0.07984 -0.55884 0.61872 0 0.64865 1.75636 0 3.65242 0.23951 7.12519 0.24949 3.4728 0.00998 5.6483 -0.16965 8.1032 -0.22953 0.0707 -0.02737 0.1305 -0.07699 0.1705 -0.14136 0.04 -0.06437 0.058 -0.14 0.0512 -0.21548 -0.0068 -0.07548 -0.0379 -0.14671 -0.0887 -0.20295 -0.0508 -0.05624 -0.1185 -0.09443 -0.1929 -0.10882Z" clip-rule="evenodd" vector-effect="non-scaling-stroke" stroke="#f1f5f9"/>
          <path fill="none" fill-rule="evenodd" d="M5.02641 1.17207c2.91395 0 5.91769 -0.16965 8.83169 0 2.1256 0.11975 5.5784 -0.07984 6.8058 0.89813 0.2595 0.19959 0.3493 2.20542 0.4291 2.85407 0.3831 2.48208 0.4868 4.99925 0.3094 7.50443 -0.0093 0.0794 0.0134 0.1592 0.063 0.2219 0.0496 0.0627 0.1221 0.1031 0.2015 0.1124 0.0794 0.0093 0.1592 -0.0134 0.2219 -0.063 0.0627 -0.0496 0.1031 -0.1221 0.1124 -0.2015 0.3072 -2.54707 0.3406 -5.11977 0.0998 -7.67402 -0.0799 -1.0578 0.0499 -2.99378 -0.7186 -3.65241C19.666 -0.145199 16.1832 0.234013 13.878 0.1442 10.8842 0.0643656 7.89046 0.353765 4.97651 0.483495c-0.08129 0.018645 -0.15322 0.065763 -0.20279 0.132832 -0.04958 0.06707 -0.07351 0.149664 -0.06748 0.232847 0.00602 0.083182 0.04162 0.161466 0.10034 0.220686 0.05872 0.05922 0.1367 0.09547 0.21983 0.10221Z" clip-rule="evenodd" vector-effect="non-scaling-stroke" stroke="#f1f5f9"/>
          <path fill="none" fill-rule="evenodd" d="M5.02642 3.28762c0.06272 0.07032 0.13959 0.12658 0.22558 0.16511 0.08599 0.03853 0.17915 0.05844 0.27338 0.05844 0.09423 0 0.18739 -0.01991 0.27338 -0.05844 0.08599 -0.03853 0.16286 -0.09479 0.22558 -0.16511 0.07605 -0.15297 0.09967 -0.32671 0.06721 -0.49443 -0.03246 -0.16772 -0.1192 -0.3201 -0.24683 -0.43364 -0.63868 -0.41913 -1.42704 0.29937 -0.8183 0.92807Z" clip-rule="evenodd" vector-effect="non-scaling-stroke" stroke="#f1f5f9"/>
          <path fill="none" fill-rule="evenodd" d="M7.19191 3.03819c0.06354 0.06895 0.14069 0.12397 0.22657 0.16161 0.08588 0.03764 0.17863 0.05707 0.27239 0.05707 0.09376 0 0.18651 -0.01943 0.27239 -0.05707 0.08588 -0.03764 0.16302 -0.09266 0.22657 -0.16161 0.09535 -0.15924 0.13065 -0.34732 0.09955 -0.5303 -0.03111 -0.18299 -0.12658 -0.34883 -0.26919 -0.46763 -0.60874 -0.34927 -1.3971 0.35926 -0.82828 0.99793Z" clip-rule="evenodd" vector-effect="non-scaling-stroke" stroke="#f1f5f9"/>
          <path fill="none" fill-rule="evenodd" d="M9.60675 3.03822c0.06272 0.07032 0.1396 0.12658 0.22559 0.16511 0.08599 0.03853 0.17916 0.05844 0.27336 0.05844 0.0942 0 0.1874 -0.01991 0.2734 -0.05844 0.086 -0.03853 0.1629 -0.09479 0.2256 -0.16511 0.1197 -0.11975 0.1596 -0.74845 -0.1697 -0.92807 -0.60871 -0.41913 -1.41703 0.2894 -0.82825 0.92807Z" clip-rule="evenodd" vector-effect="non-scaling-stroke" stroke="#f1f5f9"/>
        </g>
      </g>
      <text id="ITEM_4_HEAD" x="0.0" y="-130.0" text-anchor="middle" font-weight="bold" font-size="32" fill="var(--semantic-outcome)" data-bg-id="ITEM_4_BG" fill-opacity="1.0" stroke="none" style="font-size: 31px; font-family: 'Segoe UI Variable Display', 'Aptos Display', 'Inter', 'Segoe UI', Helvetica, Arial, sans-serif; font-weight: 700; font-kerning: normal; font-feature-settings: &quot;kern&quot; 1, &quot;liga&quot; 1; letter-spacing:-0.4px;" data-final-font-size="31">
        <tspan x="0.0" dy="42.12px">Modern Context</tspan>
      </text>
      <rect id="ITEM_4_HEAD_FRAME" x="-310" y="-130" width="620" height="60" fill="none"/>
      <text id="ITEM_4_BODY" x="0.0" y="-50.0" text-anchor="middle" font-size="24" fill="var(--primary-text)" opacity="0.88" data-bg-id="ITEM_4_BG" style="font-size: 23px; font-family: 'Segoe UI Variable Text', 'Aptos', 'Inter', 'Segoe UI', Helvetica, Arial, sans-serif; font-weight: 400; font-kerning: normal; font-feature-settings: &quot;kern&quot; 1, &quot;liga&quot; 1;" data-final-font-size="23">
        <tspan x="0.0" dy="65.55px">Integrated into Mozambique biodiversity education displays</tspan>
      </text>
      <rect id="ITEM_4_BODY_FRAME" x="-310" y="-50" width="620" height="230" fill="none"/>
    </g>
  </g>
  <text id="SOURCE_NOTE" x="134.0" y="1058.0" fill="var(--muted-text)" opacity="0.88" style="font-family: var(--font-family); font-size: 20px;">Source: Introduction</text>
</svg>
