<?xml version='1.0' encoding='utf-8'?>
<svg xmlns="http://www.w3.org/2000/svg" width="1920" height="1080" viewBox="0 0 1920 1080" data-theme="dark" data-semantic-intent="taxonomy_list" data-relation-type="taxonomy" data-site-visual-identity="heritage-amber">
  <style>
        @font-face {
            font-family: 'Inter';
            src: url('assets/fonts/Inter-Regular.ttf') format('truetype');
            font-weight: 400;
            font-style: normal;
            font-display: swap;
        }
        @font-face {
            font-family: 'Inter';
            src: url('assets/fonts/Inter-Bold.ttf') format('truetype');
            font-weight: 600;
            font-style: normal;
            font-display: swap;
        }
        @font-face {
            font-family: 'Inter';
            src: url('assets/fonts/Inter-Bold.ttf') format('truetype');
            font-weight: 800;
            font-style: normal;
            font-display: swap;
        }
        
:root {
    --background: #0f172a;
    --panel: #1e293b;
    --primary-text: #f1f5f9;
    --muted-text: #94a3b8;
    --inverse-text: #0f172a;
    --border: #334155;
    --shadow-color: #000000;
    --icon-pad-bg: #1e293b;
    --art-glow: #7dd3fc;
    --art-glow-opacity: 0.18;
    --art-sheen: #ffffff;
    --art-sheen-opacity: 0.18;
    --art-shadow: #000000;
    --art-shadow-opacity: 0.28;
    --art-muted-line: #64748b;
    --art-panel-tint: #1e293b;
    --semantic-risk: #f87171;
    --semantic-warning: #fb923c;
    --semantic-uncertain: #fbbf24;
    --semantic-evidence: #60a5fa;
    --semantic-claim: #c084fc;
    --semantic-positive: #4ade80;
    --semantic-outcome: #22d3ee;
    --font-family: 'Inter', 'Segoe UI', 'Kalam', Roboto, Helvetica, Arial, sans-serif;
    --radius-xl: 16px;
    --font-family-headline: 'Segoe UI Variable Display', 'Aptos Display', 'Inter', 'Segoe UI', Helvetica, Arial, sans-serif;
    --font-family-body: 'Segoe UI Variable Text', 'Aptos', 'Inter', 'Segoe UI', Helvetica, Arial, sans-serif;
    --font-heading: var(--font-family-headline);
    --font-body: var(--font-family-body);
    --font-size-h1: 64px;
    --font-size-h2: 42px;
    --font-size-h3: 29px;
    --font-size-body: 21px;
    --font-size-caption: 17px;
    --secondary-text: var(--muted-text);
    --panel-border: var(--border);
    --font-weight-normal: 400;
    --font-weight-medium: 500;
    --font-weight-semibold: 600;
    --font-weight-bold: 700;
    --spacing-gutter-pct: 0.07;
    --spacing-top-pct: 0.15;
    --spacing-bottom-pct: 0.07;
    --spacing-title-y-pct: 0.055;
    --accent-1: #fbbf24;
    --accent-2: #fb923c;
    --accent-3: #f59e0b;
    --accent-4: #fca5a5;
    --accent-5: #d6a66f;
    --accent-6: #7dd3fc;
}
:root[data-theme="dark"] {
    --background: #0f172a;
    --panel: #1e293b;
    --primary-text: #f1f5f9;
    --muted-text: #94a3b8;
    --inverse-text: #0f172a;
    --border: #334155;
    --shadow-color: #000000;
    --icon-pad-bg: #1e293b;
    --art-glow: #7dd3fc;
    --art-glow-opacity: 0.18;
    --art-sheen: #ffffff;
    --art-sheen-opacity: 0.18;
    --art-shadow: #000000;
    --art-shadow-opacity: 0.28;
    --art-muted-line: #64748b;
    --art-panel-tint: #1e293b;
    --semantic-risk: #f87171;
    --semantic-warning: #fb923c;
    --semantic-uncertain: #fbbf24;
    --semantic-evidence: #60a5fa;
    --semantic-claim: #c084fc;
    --semantic-positive: #4ade80;
    --semantic-outcome: #22d3ee;
    --accent-1: #fbbf24;
    --accent-2: #fb923c;
    --accent-3: #f59e0b;
    --accent-4: #fca5a5;
    --accent-5: #d6a66f;
    --accent-6: #7dd3fc;
}
:root[data-theme="light"] {
    --background: #f8fafc;
    --panel: #ffffff;
    --primary-text: #0f172a;
    --muted-text: #64748b;
    --inverse-text: #ffffff;
    --border: #e2e8f0;
    --shadow-color: #000000;
    --icon-pad-bg: #1e293b;
    --art-glow: #0891b2;
    --art-glow-opacity: 0.10;
    --art-sheen: #ffffff;
    --art-sheen-opacity: 0.34;
    --art-shadow: #0f172a;
    --art-shadow-opacity: 0.14;
    --art-muted-line: #94a3b8;
    --art-panel-tint: #f1f5f9;
    --semantic-risk: #b91c1c;
    --semantic-warning: #c2410c;
    --semantic-uncertain: #a16207;
    --semantic-evidence: #1d4ed8;
    --semantic-claim: #6d28d9;
    --semantic-positive: #15803d;
    --semantic-outcome: #0e7490;
    --accent-1: #a16207;
    --accent-2: #c2410c;
    --accent-3: #b45309;
    --accent-4: #b91c1c;
    --accent-5: #92400e;
    --accent-6: #0369a1;
}</style>
  <rect x="0" y="0" width="1.92E+3" height="1.08E+3" fill="#252a34" stroke="none" id="programmatic_background"/>
  <line id="HEADER_DECOR" x1="960.0" x2="1080.0" y1="127.0" y2="127.0" stroke="var(--accent-1)" stroke-width="6" stroke-linecap="round"/>
  <defs>
    <pattern id="svg2d5bcd9f-napkin-hatch" patternUnits="userSpaceOnUse" width="12" height="12">
      <path d="M -3 12 L 12 -3 M 0 15 L 15 0" fill="none" stroke="var(--primary-text)" stroke-width="1" stroke-opacity="0.05"/>
    </pattern>
    <filter id="svg2d5bcd9f-shadow" x="-30%" y="-30%" width="160%" height="160%">
      <feDropShadow dx="0" dy="3" stdDeviation="6" flood-color="#000000" flood-opacity="0.10"/>
      <feDropShadow dx="0" dy="8" stdDeviation="12" flood-color="#000000" flood-opacity="0.16"/>
    </filter>
    <radialGradient id="svg2d5bcd9f-universal-edge-vignette" cx="50%" cy="50%" r="72%">
      <stop offset="0%" stop-color="var(--background)" stop-opacity="0"/>
      <stop offset="72%" stop-color="var(--background)" stop-opacity="0.12"/>
      <stop offset="100%" stop-color="var(--primary-text)" stop-opacity="0.08"/>
    </radialGradient>
    <linearGradient id="svg2d5bcd9f-universal-surface-sheen" x1="0%" y1="0%" x2="100%" y2="100%">
      <stop offset="0%" stop-color="var(--art-sheen)" stop-opacity="var(--art-sheen-opacity)"/>
      <stop offset="46%" stop-color="var(--art-sheen)" stop-opacity="0.035"/>
      <stop offset="100%" stop-color="var(--art-panel-tint)" stop-opacity="0.14"/>
    </linearGradient>
    <radialGradient id="svg2d5bcd9f-universal-icon-aura" cx="50%" cy="42%" r="64%">
      <stop offset="0%" stop-color="var(--art-glow)" stop-opacity="var(--art-glow-opacity)"/>
      <stop offset="100%" stop-color="var(--background)" stop-opacity="0"/>
    </radialGradient>
    <filter id="svg2d5bcd9f-text-glow" x="-20%" y="-20%" width="140%" height="140%">
      <feDropShadow dx="0" dy="0" stdDeviation="2" flood-color="#000000" flood-opacity="0.4"/>
    </filter>
    <marker id="svg2d5bcd9f-arrowhead" markerWidth="10" markerHeight="7" refX="9" refY="3.5" orient="auto" markerUnits="strokeWidth">
      <polygon points="0 0, 10 3.5, 0 7" fill="var(--muted-text)" opacity="0.6"/>
    </marker>
  </defs>
  <rect width="100%" height="100%" fill="var(--background)" id="CANVAS_BG"/>
  <rect width="100%" height="100%" fill="url(#svg2d5bcd9f-napkin-hatch)"/>
  <rect id="UNIVERSAL_EDGE_VIGNETTE" width="100%" height="100%" fill="url(#svg2d5bcd9f-universal-edge-vignette)" opacity="0.62"/>
  <text id="TITLE" x="960.0" y="59" text-anchor="middle" font-size="60" font-weight="800" fill="#f1f5f9" style="font-size: 69px; font-family: 'Segoe UI Variable Display', 'Aptos Display', 'Inter', 'Segoe UI', Helvetica, Arial, sans-serif; font-weight: 800; font-kerning: normal; font-feature-settings: &quot;kern&quot; 1, &quot;liga&quot; 1; letter-spacing:-1.2px;" data-final-font-size="69">
    <tspan x="960.0" dy="70.47px">New Zealand's Diverse Curiosity Collections</tspan>
  </text>
  <rect id="TITLE_FRAME" x="134" y="54" width="1652" height="100" fill="none"/>
  <rect x="150" y="150" width="1620" height="850" rx="40" fill="var(--panel)" fill-opacity="0.18" stroke="var(--muted-text)" stroke-width="2" opacity="0.90"/>
  <line x1="360" y1="212.0" x2="360" y2="938.0" stroke="var(--muted-text)" stroke-width="18" stroke-linecap="round" opacity="0.18"/>
  <line x1="360" y1="212.0" x2="360" y2="938.0" stroke="var(--border)" stroke-width="3" stroke-linecap="round" opacity="0.72"/>
  <g id="DIAGRAM_MAIN">
    <g filter="url(#svg2d5bcd9f-shadow)">
      <line x1="404.0" y1="240.0" x2="420.0" y2="240.0" stroke="var(--accent-1)" stroke-width="5" opacity="0.76" stroke-linecap="round"/>
      <rect id="ITEM_1_BG" x="420.0" y="174.0" width="1085" height="152" rx="22" fill="var(--panel)" fill-opacity="0.97" stroke="var(--accent-1)" stroke-width="2.5"/>
      <rect x="420.0" y="174.0" width="1085" height="152" rx="16" fill="url(#svg2d5bcd9f-universal-surface-sheen)" opacity="0.88"/>
      <rect x="420.0" y="174.0" width="14" height="132" rx="7" fill="var(--accent-1)" fill-opacity="0.90"/>
      <circle id="ITEM_1_PAD" cx="360" cy="240.0" r="46" fill="var(--icon-pad-bg)" opacity="1" fill-opacity="0.9" stroke-width="2" stroke="var(--accent-1)" stroke-opacity="0.72" data-badge-layer="pad"/>
      <circle id="ITEM_1_PAD_INNER" cx="360" cy="240.0" r="35.88" fill="var(--accent-1)" fill-opacity="0.12" stroke="none" data-badge-layer="tint"/>
      <circle cx="360" cy="240.0" r="38" fill="none" stroke="var(--accent-1)" stroke-width="3" stroke-dasharray="6 4" display="none" data-suppressed-decoration="redundant-badge-ring"/>
      <g id="ITEM_1_ICON" transform="translate(324, 204.0)" data-icon-size="72" stroke-linecap="round" stroke-linejoin="round" data-badge-treatment="clean">
        <g transform="translate(-6.107142857142861,-5.142857142857143) scale(2.5714285714285716)">
          <path d="M18.26 2.85002L22.82 7.90002C23.43 8.51002 23.43 9.49002 22.83 10.11L17.39 15.01C16.78 15.62 15.79 15.62 15.18 15.01L9.74 10.11C9.13 9.50002 9.13 8.51002 9.74 7.90002L14.29 2.85002C15.38 1.75002 17.16 1.75002 18.26 2.85002Z" fill="#BB1D80"/>
          <path d="M3 9.62995C3 9.26995 3.08 8.92995 3.22 8.62995C3.26 8.53995 3.31 8.43995 3.37 8.35995L4.29 6.65995C4.76 5.78995 6.02 5.78995 6.49 6.65995L7.39 8.31995C7.67 8.74995 7.82 9.27995 7.77 9.83995C7.72 10.4599 7.43 10.9999 6.99 11.3999C6.68 11.6799 6.51 12.0899 6.51 12.5099V16.2099C6.51 17.3999 7.27 18.4699 8.39 18.8599L12.6 20.3399C13.19 20.5499 13.49 21.1899 13.29 21.7699C13.13 22.2299 12.69 22.5199 12.23 22.5199C12.11 22.5199 11.98 22.4999 11.86 22.4599L7.65 20.9799C5.63 20.2699 4.27 18.3499 4.27 16.2099V12.5099C4.27 12.0799 4.09 11.6699 3.77 11.3799C3.3 10.9399 3 10.3199 3 9.62995Z" fill="#BB1D80"/>
          <path d="M29.55 9.62995C29.55 9.26995 29.47 8.92995 29.33 8.62995C29.29 8.53995 29.24 8.43995 29.18 8.35995L28.26 6.65995C27.79 5.78995 26.53 5.78995 26.06 6.65995L25.16 8.31995C24.88 8.74995 24.73 9.27995 24.78 9.83995C24.83 10.4599 25.12 10.9999 25.56 11.3999C25.87 11.6799 26.04 12.0899 26.04 12.5099V16.2099C26.04 17.3999 25.28 18.4699 24.16 18.8599L19.95 20.3399C19.36 20.5499 19.06 21.1899 19.26 21.7699C19.42 22.2299 19.86 22.5199 20.32 22.5199C20.44 22.5199 20.57 22.4999 20.69 22.4599L24.9 20.9799C26.92 20.2699 28.28 18.3499 28.28 16.2099V12.5099C28.28 12.0799 28.46 11.6699 28.78 11.3799C29.25 10.9399 29.55 10.3199 29.55 9.62995Z" fill="#BB1D80"/>
          <path d="M10.47 27.06H10.52C11.59 27.06 12.59 26.64 13.36 25.88L14.0849 25.1551L13.6 26.96C13.48 27.42 13.05 27.75 12.57 27.75H5.41C4.79 27.75 4.29 28.25 4.29 28.87C4.29 29.49 4.79 30 5.41 30H12.58C14.08 30 15.39 28.99 15.78 27.54L16.285 25.6603L16.79 27.54C17.18 28.99 18.49 30 19.99 30H27.16C27.78 30 28.29 29.49 28.29 28.87C28.29 28.25 27.79 27.75 27.17 27.75H20C19.52 27.75 19.09 27.42 18.97 26.96L18.4888 25.1688L19.21 25.89C19.97 26.64 20.97 27.06 22.04 27.06C22.0424 27.06 22.0448 27.0599 22.0472 27.0597C22.0489 27.0595 22.0506 27.0593 22.0523 27.0591C22.0546 27.0587 22.0569 27.0584 22.0592 27.058C22.0736 27.0557 22.0895 27.0532 22.11 27.06C23.2 27.04 24.21 26.6 24.96 25.81L25.68 25.06C25.8 24.93 25.94 24.91 26.02 24.91C26.1 24.91 26.24 24.92 26.37 25.05C26.81 25.49 27.52 25.49 27.96 25.05C28.4 24.61 28.4 23.9 27.96 23.46C27.43 22.93 26.73 22.65 25.99 22.66C25.24 22.67 24.55 22.97 24.04 23.51L23.32 24.26C22.99 24.61 22.55 24.8 22.07 24.81C21.59 24.82 21.14 24.64 20.8 24.3L19.78 23.2801C19.34 22.84 18.63 22.84 18.19 23.2801C18.1296 23.3404 18.0775 23.4059 18.0337 23.475L17.4529 21.3131L17.94 19.5C18.1 18.9 17.74 18.28 17.14 18.12C16.84 18.04 16.535 18.09 16.285 18.235C16.035 18.09 15.73 18.04 15.43 18.12C14.83 18.28 14.47 18.9 14.63 19.5L15.1171 21.3131L14.5382 23.468C14.494 23.3978 14.4412 23.3313 14.38 23.27C13.94 22.83 13.23 22.83 12.79 23.27L11.77 24.29C11.44 24.62 11 24.8 10.53 24.8H10.51C10.03 24.79 9.59 24.6 9.26 24.25L8.54 23.5C8.02 22.96 7.33 22.66 6.59 22.65C5.85 22.64 5.15 22.92 4.62 23.45C4.18 23.89 4.18 24.6 4.62 25.04C5.06 25.48 5.77 25.48 6.21 25.04C6.34 24.92 6.48 24.9 6.56 24.9C6.63 24.9 6.78 24.92 6.9 25.05L7.62 25.81C8.37 26.6 9.38 27.05 10.47 27.06Z" fill="#BB1D80"/>
          <path d="M27.68 7.00999C27.68 7.29718 27.4472 7.52999 27.16 7.52999C26.8728 7.52999 26.64 7.29718 26.64 7.00999C26.64 6.7228 26.8728 6.48999 27.16 6.48999C27.4472 6.48999 27.68 6.7228 27.68 7.00999Z" fill="#FF6DC6"/>
          <path d="M26.91 8.29002C26.91 8.57721 26.6772 8.81002 26.39 8.81002C26.1028 8.81002 25.87 8.57721 25.87 8.29002C25.87 8.00283 26.1028 7.77002 26.39 7.77002C26.6772 7.77002 26.91 8.00283 26.91 8.29002Z" fill="#FF6DC6"/>
          <path d="M28.33 10.1001C28.33 10.7462 27.8062 11.2701 27.16 11.2701C26.5138 11.2701 25.99 10.7462 25.99 10.1001C25.99 9.45388 26.5138 8.93005 27.16 8.93005C27.8062 8.93005 28.33 9.45388 28.33 10.1001Z" fill="#FF6DC6"/>
          <path d="M27.93 8.81002C28.2172 8.81002 28.45 8.57721 28.45 8.29002C28.45 8.00283 28.2172 7.77002 27.93 7.77002C27.6428 7.77002 27.41 8.00283 27.41 8.29002C27.41 8.57721 27.6428 8.81002 27.93 8.81002Z" fill="#FF6DC6"/>
          <path d="M5.39001 11.2701C6.03618 11.2701 6.56001 10.7462 6.56001 10.1001C6.56001 9.45388 6.03618 8.93005 5.39001 8.93005C4.74384 8.93005 4.22001 9.45388 4.22001 10.1001C4.22001 10.7462 4.74384 11.2701 5.39001 11.2701Z" fill="#FF6DC6"/>
          <path d="M6.68001 8.29002C6.68001 8.57721 6.4472 8.81002 6.16001 8.81002C5.87282 8.81002 5.64001 8.57721 5.64001 8.29002C5.64001 8.00283 5.87282 7.77002 6.16001 7.77002C6.4472 7.77002 6.68001 8.00283 6.68001 8.29002Z" fill="#FF6DC6"/>
          <path d="M4.62001 8.81002C4.90719 8.81002 5.14001 8.57721 5.14001 8.29002C5.14001 8.00283 4.90719 7.77002 4.62001 7.77002C4.33282 7.77002 4.10001 8.00283 4.10001 8.29002C4.10001 8.57721 4.33282 8.81002 4.62001 8.81002Z" fill="#FF6DC6"/>
          <path d="M5.91001 7.00999C5.91001 7.29718 5.6772 7.52999 5.39001 7.52999C5.10282 7.52999 4.87001 7.29718 4.87001 7.00999C4.87001 6.7228 5.10282 6.48999 5.39001 6.48999C5.6772 6.48999 5.91001 6.7228 5.91001 7.00999Z" fill="#FF6DC6"/>
          <path d="M13.63 3.89C14.02 2.76 15.08 2 16.28 2C17.48 2 18.54 2.76 18.94 3.89L23.12 15.57C23.55 17.05 23.14 18.64 22.05 19.73C21.8165 19.9635 21.5577 20.1673 21.28 20.3385V22.5C21.28 23.88 20.16 25 18.78 25H13.82C12.44 25 11.32 23.88 11.32 22.5V20.3569C11.0309 20.1819 10.7619 19.9719 10.52 19.73C9.43999 18.64 9.01999 17.05 9.44999 15.57L13.63 3.89Z" fill="#F70A8D"/>
          <path d="M15.28 12.5C15.6942 12.5 16.03 12.1642 16.03 11.75C16.03 11.3358 15.6942 11 15.28 11C14.8658 11 14.53 11.3358 14.53 11.75C14.53 12.1642 14.8658 12.5 15.28 12.5Z" fill="#BB1D80"/>
          <path d="M18.28 13.62C18.8985 13.62 19.4 13.1186 19.4 12.5C19.4 11.8814 18.8985 11.38 18.28 11.38C17.6614 11.38 17.16 11.8814 17.16 12.5C17.16 13.1186 17.6614 13.62 18.28 13.62Z" fill="#BB1D80"/>
          <path d="M16.53 14.9C16.53 15.5186 16.0285 16.02 15.41 16.02C14.7914 16.02 14.29 15.5186 14.29 14.9C14.29 14.2815 14.7914 13.78 15.41 13.78C16.0285 13.78 16.53 14.2815 16.53 14.9Z" fill="#BB1D80"/>
          <path d="M14.59 22.65C14.59 23.0642 14.2542 23.4 13.84 23.4C13.4258 23.4 13.09 23.0642 13.09 22.65C13.09 22.2358 13.4258 21.9 13.84 21.9C14.2542 21.9 14.59 22.2358 14.59 22.65Z" fill="#1C1C1C"/>
          <path d="M19.46 22.65C19.46 23.0642 19.1242 23.4 18.71 23.4C18.2958 23.4 17.96 23.0642 17.96 22.65C17.96 22.2358 18.2958 21.9 18.71 21.9C19.1242 21.9 19.46 22.2358 19.46 22.65Z" fill="#1C1C1C"/>
        </g>
      </g>
      <text id="ITEM_1_HEAD" x="500.0" y="192.0" text-anchor="start" font-weight="800" font-size="30" fill="var(--accent-1)" data-bg-id="ITEM_1_BG" fill-opacity="1.0" stroke="none" style="font-size: 31px; font-family: 'Segoe UI Variable Display', 'Aptos Display', 'Inter', 'Segoe UI', Helvetica, Arial, sans-serif; font-weight: 700; font-kerning: normal; font-feature-settings: &quot;kern&quot; 1, &quot;liga&quot; 1; letter-spacing:-0.4px;" data-final-font-size="31">
        <tspan x="500.0" dy="27.40px">Scientific Specimens</tspan>
      </text>
      <rect id="ITEM_1_HEAD_FRAME" x="500" y="192.0" width="760" height="32" fill="none"/>
      <text id="ITEM_1_BODY" x="500.0" y="230.0" text-anchor="start" font-size="24" fill="var(--primary-text)" data-bg-id="ITEM_1_BG" style="font-size: 23px; font-family: 'Segoe UI Variable Text', 'Aptos', 'Inter', 'Segoe UI', Helvetica, Arial, sans-serif; font-weight: 400; font-kerning: normal; font-feature-settings: &quot;kern&quot; 1, &quot;liga&quot; 1;" data-final-font-size="23">
        <tspan x="500.0" dy="30.10px">Te Papa preserves a rare adult colossal squid specimen</tspan>
      </text>
      <rect id="ITEM_1_BODY_FRAME" x="500" y="230.0" width="860" height="72" fill="none"/>
      <text x="1460" y="216.0" text-anchor="end" font-size="18" font-weight="800" fill="var(--accent-1)" opacity="0.70">01</text>
    </g>
    <g filter="url(#svg2d5bcd9f-shadow)">
      <line x1="404.0" y1="407.5" x2="420.0" y2="407.5" stroke="var(--accent-2)" stroke-width="5" opacity="0.76" stroke-linecap="round"/>
      <rect id="ITEM_2_BG" x="420.0" y="341.5" width="1085" height="152" rx="22" fill="var(--panel)" fill-opacity="0.97" stroke="var(--accent-2)" stroke-width="2.5"/>
      <rect x="420.0" y="341.5" width="1085" height="152" rx="16" fill="url(#svg2d5bcd9f-universal-surface-sheen)" opacity="0.88"/>
      <rect x="420.0" y="341.5" width="14" height="132" rx="7" fill="var(--accent-2)" fill-opacity="0.90"/>
      <circle id="ITEM_2_PAD" cx="360" cy="407.5" r="46" fill="var(--icon-pad-bg)" opacity="1" fill-opacity="0.9" stroke-width="2" stroke="var(--accent-2)" stroke-opacity="0.72" data-badge-layer="pad"/>
      <circle id="ITEM_2_PAD_INNER" cx="360" cy="407.5" r="35.88" fill="var(--accent-2)" fill-opacity="0.12" stroke="none" data-badge-layer="tint"/>
      <circle cx="360" cy="407.5" r="38" fill="none" stroke="var(--accent-2)" stroke-width="3" stroke-dasharray="6 4" display="none" data-suppressed-decoration="redundant-badge-ring"/>
      <g id="ITEM_2_ICON" transform="translate(324, 371.5)" data-icon-size="72" stroke-linecap="round" stroke-linejoin="round" data-badge-treatment="clean">
        <g transform="translate(-2.3801652892561984,-2.0826446280991755) scale(2.3801652892561984)">
          <path d="M16.0278 1C7.74582 1 1.02777 7.71514 1.02777 15.995C1.02777 18.7681 1.78997 20.7383 3.31443 22.0278C4.57567 23.0948 6.23271 23.5821 8.02777 23.8128V28.0007C8.02777 29.6529 9.37582 31 11.0278 31C12.069 31 12.9895 30.4649 13.5278 29.6554C14.0661 30.4649 14.9866 31 16.0278 31C17.069 31 17.9895 30.4649 18.5278 29.6554C19.0661 30.4649 19.9866 31 21.0278 31C22.6797 31 24.0278 29.6529 24.0278 28.0007V23.811C25.8222 23.5772 27.4794 23.0901 28.7407 22.0245C30.2654 20.7362 31.0278 18.7683 31.0278 15.995C31.0278 7.71514 24.3097 1 16.0278 1Z" fill="#9B9B9B"/>
          <path d="M16.0278 2C8.29777 2 2.02777 8.26776 2.02777 15.995C2.02777 21.1732 4.84777 22.5627 9.02777 22.9125V28.0007C9.02777 29.1003 9.92777 30 11.0278 30C12.1278 30 13.0278 29.1003 13.0278 28.0007V25.4918C13.0278 25.2156 13.2516 24.9918 13.5278 24.9918C13.8039 24.9918 14.0278 25.2156 14.0278 25.4918V28.0007C14.0278 29.1003 14.9278 30 16.0278 30C17.1278 30 18.0278 29.1003 18.0278 28.0007V25.4918C18.0278 25.2156 18.2516 24.9918 18.5278 24.9918C18.8039 24.9918 19.0278 25.2156 19.0278 25.4918V28.0007C19.0278 29.1003 19.9278 30 21.0278 30C22.1278 30 23.0278 29.1003 23.0278 28.0007V22.9125C27.2078 22.5527 30.0278 21.1732 30.0278 15.995C30.0278 8.26776 23.7578 2 16.0278 2Z" fill="white"/>
          <path d="M14 16.7617C14 19.3928 11.9866 20 9.5 20C7.01342 20 5 19.3928 5 16.7617C5 14.1305 7.01342 12 9.5 12C11.9866 12 14 14.1305 14 16.7617Z" fill="#402A32"/>
          <path d="M27 16.7617C27 19.3928 24.9866 20 22.5 20C20.0134 20 18 19.3928 18 16.7617C18 14.1305 20.0134 12 22.5 12C24.9866 12 27 14.1305 27 16.7617Z" fill="#402A32"/>
          <path d="M15.01 21.97H16.98C17.48 21.97 17.83 21.48 17.66 21.01L17.29 19.93C17.1 19.37 16.58 19 15.99 19C15.4 19 14.87 19.38 14.68 19.93L14.32 21.01C14.16 21.48 14.51 21.97 15.01 21.97Z" fill="#402A32"/>
        </g>
      </g>
      <text id="ITEM_2_HEAD" x="500.0" y="359.5" text-anchor="start" font-weight="800" font-size="30" fill="var(--accent-2)" data-bg-id="ITEM_2_BG" fill-opacity="1.0" stroke="none" style="font-size: 31px; font-family: 'Segoe UI Variable Display', 'Aptos Display', 'Inter', 'Segoe UI', Helvetica, Arial, sans-serif; font-weight: 700; font-kerning: normal; font-feature-settings: &quot;kern&quot; 1, &quot;liga&quot; 1; letter-spacing:-0.4px;" data-final-font-size="31">
        <tspan x="500.0" dy="27.40px">Private Curiosity Cabinets</tspan>
      </text>
      <rect id="ITEM_2_HEAD_FRAME" x="500" y="359.5" width="760" height="32" fill="none"/>
      <text id="ITEM_2_BODY" x="500.0" y="397.5" text-anchor="start" font-size="24" fill="var(--primary-text)" data-bg-id="ITEM_2_BG" style="font-size: 23px; font-family: 'Segoe UI Variable Text', 'Aptos', 'Inter', 'Segoe UI', Helvetica, Arial, sans-serif; font-weight: 400; font-kerning: normal; font-feature-settings: &quot;kern&quot; 1, &quot;liga&quot; 1;" data-final-font-size="23">
        <tspan x="500.0" dy="30.10px">Dunedin Museum displays personal artist-curated biological specimens</tspan>
      </text>
      <rect id="ITEM_2_BODY_FRAME" x="500" y="397.5" width="860" height="72" fill="none"/>
      <text x="1460" y="383.5" text-anchor="end" font-size="18" font-weight="800" fill="var(--accent-2)" opacity="0.70">02</text>
    </g>
    <g filter="url(#svg2d5bcd9f-shadow)">
      <line x1="404.0" y1="575.0" x2="420.0" y2="575.0" stroke="var(--accent-3)" stroke-width="5" opacity="0.76" stroke-linecap="round"/>
      <rect id="ITEM_3_BG" x="420.0" y="509.0" width="1085" height="152" rx="22" fill="var(--panel)" fill-opacity="0.97" stroke="var(--accent-3)" stroke-width="2.5"/>
      <rect x="420.0" y="509.0" width="1085" height="152" rx="16" fill="url(#svg2d5bcd9f-universal-surface-sheen)" opacity="0.88"/>
      <rect x="420.0" y="509.0" width="14" height="132" rx="7" fill="var(--accent-3)" fill-opacity="0.90"/>
      <circle id="ITEM_3_PAD" cx="360" cy="575.0" r="46" fill="var(--icon-pad-bg)" opacity="1" fill-opacity="0.9" stroke-width="2" stroke="var(--accent-3)" stroke-opacity="0.72" data-badge-layer="pad"/>
      <circle id="ITEM_3_PAD_INNER" cx="360" cy="575.0" r="35.88" fill="var(--accent-3)" fill-opacity="0.12" stroke="none" data-badge-layer="tint"/>
      <circle cx="360" cy="575.0" r="38" fill="none" stroke="var(--accent-3)" stroke-width="3" stroke-dasharray="6 4" display="none" data-suppressed-decoration="redundant-badge-ring"/>
      <g id="ITEM_3_ICON" transform="translate(324, 539.0)" data-icon-size="72" stroke-linecap="round" stroke-linejoin="round" data-badge-treatment="clean">
        <g transform="translate(-5.142857142857143,-5.142857142857143) scale(2.5714285714285716)" vector-effect="non-scaling-stroke" fill="#f1f5f9" fill-opacity="1.0" stroke="none">
          <path fill="#f1f5f9" d="M28 21.985a6 6 0 0 0-.155-1.336L30 19.822l-.717-1.867l-2.206.847a6 6 0 0 0-1.757-1.81l.97-2.179L24.463 14l-.971 2.18c-.478-.123-.976-.195-1.492-.195s-1.014.072-1.492.195l-.97-2.18l-1.828.814l.97 2.177a6 6 0 0 0-1.757 1.81l-2.206-.846L14 19.822l2.155.827A6 6 0 0 0 16 21.985c0 .44.05.867.14 1.28l-2.14.953l.813 1.827l2.08-.926a6 6 0 0 0 1.72 1.813l-.903 2.351l1.867.717l.856-2.23c.5.136 1.024.215 1.567.215s1.066-.08 1.567-.215l.856 2.23l1.867-.717l-.903-2.35a6 6 0 0 0 1.72-1.814l2.08.926l.813-1.827l-2.14-.953c.09-.413.14-.84.14-1.28m-6 4c-2.206 0-4-1.795-4-4s1.794-4 4-4s4 1.794 4 4s-1.794 4-4 4m-8.529-11.1l1.479 1.479l1.414-1.414l-1.479-1.479a5.96 5.96 0 0 0 1.025-2.47H18V9h-2.09a5.96 5.96 0 0 0-1.025-2.472l1.479-1.479l-1.414-1.414l-1.479 1.479A5.96 5.96 0 0 0 11 4.09V2H9v2.09a5.96 5.96 0 0 0-2.471 1.025L5.05 3.636L3.636 5.05l1.479 1.48A5.96 5.96 0 0 0 4.09 9H2v2h2.09a5.96 5.96 0 0 0 1.025 2.471L3.636 14.95l1.414 1.414l1.479-1.479A5.96 5.96 0 0 0 9 15.91V18h2v-2.09a5.96 5.96 0 0 0 2.471-1.025M6 10c0-2.206 1.794-4 4-4s4 1.794 4 4s-1.794 4-4 4s-4-1.794-4-4" vector-effect="non-scaling-stroke" stroke="none"/>
        </g>
      </g>
      <text id="ITEM_3_HEAD" x="500.0" y="527.0" text-anchor="start" font-weight="800" font-size="30" fill="var(--accent-3)" data-bg-id="ITEM_3_BG" fill-opacity="1.0" stroke="none" style="font-size: 31px; font-family: 'Segoe UI Variable Display', 'Aptos Display', 'Inter', 'Segoe UI', Helvetica, Arial, sans-serif; font-weight: 700; font-kerning: normal; font-feature-settings: &quot;kern&quot; 1, &quot;liga&quot; 1; letter-spacing:-0.4px;" data-final-font-size="31">
        <tspan x="500.0" dy="27.40px">Mechanical Artworks</tspan>
      </text>
      <rect id="ITEM_3_HEAD_FRAME" x="500" y="527.0" width="760" height="32" fill="none"/>
      <text id="ITEM_3_BODY" x="500.0" y="565.0" text-anchor="start" font-size="24" fill="var(--primary-text)" data-bg-id="ITEM_3_BG" style="font-size: 23px; font-family: 'Segoe UI Variable Text', 'Aptos', 'Inter', 'Segoe UI', Helvetica, Arial, sans-serif; font-weight: 400; font-kerning: normal; font-feature-settings: &quot;kern&quot; 1, &quot;liga&quot; 1;" data-final-font-size="23">
        <tspan x="500.0" dy="30.10px">The Lost Gypsy Gallery features handmade interactive automata</tspan>
      </text>
      <rect id="ITEM_3_BODY_FRAME" x="500" y="565.0" width="860" height="72" fill="none"/>
      <text x="1460" y="551.0" text-anchor="end" font-size="18" font-weight="800" fill="var(--accent-3)" opacity="0.70">03</text>
    </g>
    <g filter="url(#svg2d5bcd9f-shadow)">
      <line x1="404.0" y1="742.5" x2="420.0" y2="742.5" stroke="var(--accent-4)" stroke-width="5" opacity="0.76" stroke-linecap="round"/>
      <rect id="ITEM_4_BG" x="420.0" y="676.5" width="1085" height="152" rx="22" fill="var(--panel)" fill-opacity="0.97" stroke="var(--accent-4)" stroke-width="2.5"/>
      <rect x="420.0" y="676.5" width="1085" height="152" rx="16" fill="url(#svg2d5bcd9f-universal-surface-sheen)" opacity="0.88"/>
      <rect x="420.0" y="676.5" width="14" height="132" rx="7" fill="var(--accent-4)" fill-opacity="0.90"/>
      <circle id="ITEM_4_PAD" cx="360" cy="742.5" r="46" fill="var(--icon-pad-bg)" opacity="1" fill-opacity="0.9" stroke-width="2" stroke="var(--accent-1)" stroke-opacity="0.72" data-badge-layer="pad"/>
      <circle id="ITEM_4_PAD_INNER" cx="360" cy="742.5" r="35.88" fill="var(--accent-1)" fill-opacity="0.12" stroke="none" data-badge-layer="tint"/>
      <circle cx="360" cy="742.5" r="38" fill="none" stroke="var(--accent-4)" stroke-width="3" stroke-dasharray="6 4" display="none" data-suppressed-decoration="redundant-badge-ring"/>
      <g id="ITEM_4_ICON" transform="translate(324, 706.5)" data-icon-size="72" stroke-linecap="round" stroke-linejoin="round" data-badge-treatment="clean">
        <g transform="translate(-5.142857142857143,-3.8571428571428585) scale(2.5714285714285716)">
          <path fill-rule="evenodd" clip-rule="evenodd" d="M10 8.83354V3.52275C10 3.23233 9.75879 3 9.46734 3H6.54271C6.24121 3 6 3.23233 6 3.52275V12.1687L5 13.0025V29.0025H27V14.0025L16.07 3.77246L10 8.83354Z" fill="#F3C07B"/>
          <path d="M15.92 27.0025H8.08C8.04 27.0025 8 26.9625 8 26.9225V16.3925C8 15.6425 8.61 15.0325 9.36 15.0325H14.65C15.4 15.0325 16.01 15.6425 16.01 16.3925V26.9225C16 26.9625 15.96 27.0025 15.92 27.0025Z" fill="#8C5543"/>
          <path d="M14.5 21.0024C14.7761 21.0024 15 20.7786 15 20.5024C15 20.2263 14.7761 20.0024 14.5 20.0024C14.2239 20.0024 14 20.2263 14 20.5024C14 20.7786 14.2239 21.0024 14.5 21.0024Z" fill="#402A32"/>
          <path d="M15.96 28.0024H8C7.45 28.0024 7 27.5524 7 27.0024C7 26.4524 7.45 26.0024 8 26.0024H15.96C16.51 26.0024 16.96 26.4524 16.96 27.0024C16.96 27.5524 16.51 28.0024 15.96 28.0024Z" fill="#D3D3D3"/>
          <path d="M30 29.0024H2V28.9124C2 27.8524 2.85 27.0024 3.91 27.0024H28.09C29.14 27.0024 30 27.8524 30 28.9124V29.0024Z" fill="#00F397"/>
          <path d="M16.88 2.3525L29.64 14.9225C30.12 15.3925 30.12 16.1525 29.64 16.6125C29.17 17.0825 28.4 17.0825 27.92 16.6125L16.02 4.8925L4.08 16.6525C3.61 17.1225 2.84 17.1225 2.36 16.6525C1.88 16.1825 1.88 15.4225 2.36 14.9525L15.16 2.3525C15.63 1.8825 16.4 1.8825 16.88 2.3525Z" fill="#F8312F"/>
          <path d="M23.14 21.0024H18.86C18.38 21.0024 18 20.6224 18 20.1424V15.8624C18 15.3924 18.38 15.0024 18.86 15.0024H23.14C23.61 15.0024 24 15.3824 24 15.8624V20.1424C24 20.6224 23.62 21.0024 23.14 21.0024Z" fill="#83CBFF"/>
        </g>
      </g>
      <text id="ITEM_4_HEAD" x="500.0" y="694.5" text-anchor="start" font-weight="800" font-size="30" fill="var(--accent-1)" data-bg-id="ITEM_4_BG" fill-opacity="1.0" stroke="none" style="font-size: 31px; font-family: 'Segoe UI Variable Display', 'Aptos Display', 'Inter', 'Segoe UI', Helvetica, Arial, sans-serif; font-weight: 700; font-kerning: normal; font-feature-settings: &quot;kern&quot; 1, &quot;liga&quot; 1; letter-spacing:-0.4px;" data-final-font-size="31">
        <tspan x="500.0" dy="27.40px">Historical Reconstructions</tspan>
      </text>
      <rect id="ITEM_4_HEAD_FRAME" x="500" y="694.5" width="760" height="32" fill="none"/>
      <text id="ITEM_4_BODY" x="500.0" y="732.5" text-anchor="start" font-size="24" fill="var(--primary-text)" data-bg-id="ITEM_4_BG" style="font-size: 23px; font-family: 'Segoe UI Variable Text', 'Aptos', 'Inter', 'Segoe UI', Helvetica, Arial, sans-serif; font-weight: 400; font-kerning: normal; font-feature-settings: &quot;kern&quot; 1, &quot;liga&quot; 1;" data-final-font-size="23">
        <tspan x="500.0" dy="30.10px">Tawhiti Museum uses life-sized figures and elaborate dioramas</tspan>
      </text>
      <rect id="ITEM_4_BODY_FRAME" x="500" y="732.5" width="860" height="72" fill="none"/>
      <text x="1460" y="718.5" text-anchor="end" font-size="18" font-weight="800" fill="var(--accent-4)" opacity="0.70">04</text>
    </g>
    <g filter="url(#svg2d5bcd9f-shadow)">
      <line x1="404.0" y1="910.0" x2="420.0" y2="910.0" stroke="var(--accent-5)" stroke-width="5" opacity="0.76" stroke-linecap="round"/>
      <rect id="ITEM_5_BG" x="420.0" y="844.0" width="1085" height="152" rx="22" fill="var(--panel)" fill-opacity="0.97" stroke="var(--accent-5)" stroke-width="2.5"/>
      <rect x="420.0" y="844.0" width="1085" height="152" rx="16" fill="url(#svg2d5bcd9f-universal-surface-sheen)" opacity="0.88"/>
      <rect x="420.0" y="844.0" width="14" height="132" rx="7" fill="var(--accent-5)" fill-opacity="0.90"/>
      <circle id="ITEM_5_PAD" cx="360" cy="910.0" r="46" fill="var(--icon-pad-bg)" opacity="1" fill-opacity="0.9" stroke-width="2" stroke="var(--accent-2)" stroke-opacity="0.72" data-badge-layer="pad"/>
      <circle id="ITEM_5_PAD_INNER" cx="360" cy="910.0" r="35.88" fill="var(--accent-2)" fill-opacity="0.12" stroke="none" data-badge-layer="tint"/>
      <circle cx="360" cy="910.0" r="38" fill="none" stroke="var(--accent-5)" stroke-width="3" stroke-dasharray="6 4" display="none" data-suppressed-decoration="redundant-badge-ring"/>
      <g id="ITEM_5_ICON" transform="translate(324, 874.0)" data-icon-size="72" stroke-linecap="round" stroke-linejoin="round" data-badge-treatment="clean">
        <g transform="translate(0.0,0.0) scale(5.142857142857143)" vector-effect="non-scaling-stroke" stroke-width="2.58" stroke-linecap="round" stroke-linejoin="round" stroke-opacity="1.0">
          <path id="Vector" fill="none" d="M1.5 5h11v7c0 0.2652 -0.1054 0.5196 -0.2929 0.7071S11.7652 13 11.5 13h-9c-0.26522 0 -0.51957 -0.1054 -0.70711 -0.2929C1.60536 12.5196 1.5 12.2652 1.5 12V5Z" vector-effect="non-scaling-stroke" stroke="#f1f5f9"/>
          <path id="Vector_2" fill="none" d="M13.5 4V2c0 -0.55228 -0.4477 -1 -1 -1l-11 0c-0.552285 0 -1 0.44772 -1 1v2c0 0.55228 0.447715 1 1 1l11 0c0.5523 0 1 -0.44772 1 -1Z" vector-effect="non-scaling-stroke" stroke="#f1f5f9"/>
          <path id="Vector_3" stroke="#f1f5f9" d="M1.5 5h11v7c0 0.2652 -0.1054 0.5196 -0.2929 0.7071S11.7652 13 11.5 13h-9c-0.26522 0 -0.51957 -0.1054 -0.70711 -0.2929C1.60536 12.5196 1.5 12.2652 1.5 12V5v0Z" vector-effect="non-scaling-stroke" fill="none"/>
          <path id="Vector_4" stroke="#f1f5f9" d="M13.5 4V2c0 -0.55228 -0.4477 -1 -1 -1l-11 0c-0.552285 0 -1 0.44772 -1 1v2c0 0.55228 0.447715 1 1 1l11 0c0.5523 0 1 -0.44772 1 -1Z" vector-effect="non-scaling-stroke" fill="none"/>
          <path id="Vector_5" stroke="#f1f5f9" d="M5.5 8h3" vector-effect="non-scaling-stroke" fill="none"/>
        </g>
      </g>
      <text id="ITEM_5_HEAD" x="500.0" y="862.0" text-anchor="start" font-weight="800" font-size="30" fill="var(--accent-2)" data-bg-id="ITEM_5_BG" fill-opacity="1.0" stroke="none" style="font-size: 31px; font-family: 'Segoe UI Variable Display', 'Aptos Display', 'Inter', 'Segoe UI', Helvetica, Arial, sans-serif; font-weight: 700; font-kerning: normal; font-feature-settings: &quot;kern&quot; 1, &quot;liga&quot; 1; letter-spacing:-0.4px;" data-final-font-size="31">
        <tspan x="500.0" dy="27.40px">Archival Records</tspan>
      </text>
      <rect id="ITEM_5_HEAD_FRAME" x="500" y="862.0" width="760" height="32" fill="none"/>
      <text id="ITEM_5_BODY" x="500.0" y="900.0" text-anchor="start" font-size="24" fill="var(--primary-text)" data-bg-id="ITEM_5_BG" style="font-size: 23px; font-family: 'Segoe UI Variable Text', 'Aptos', 'Inter', 'Segoe UI', Helvetica, Arial, sans-serif; font-weight: 400; font-kerning: normal; font-feature-settings: &quot;kern&quot; 1, &quot;liga&quot; 1;" data-final-font-size="23">
        <tspan x="500.0" dy="30.10px">National Library holds declassified New Zealand Defence Force UFO files</tspan>
      </text>
      <rect id="ITEM_5_BODY_FRAME" x="500" y="900.0" width="860" height="72" fill="none"/>
      <text x="1460" y="886.0" text-anchor="end" font-size="18" font-weight="800" fill="var(--accent-5)" opacity="0.70">05</text>
    </g>
  </g>
  <text id="SOURCE_NOTE" x="134.0" y="1058.0" fill="var(--muted-text)" opacity="0.88" style="font-family: var(--font-family); font-size: 20px;">Source: Introduction</text>
</svg>
