<?xml version='1.0' encoding='utf-8'?>
<svg xmlns="http://www.w3.org/2000/svg" width="1920" height="1080" viewBox="0 0 1920 1080" data-theme="dark" data-semantic-intent="risk_caution" data-relation-type="taxonomy" data-site-visual-identity="heritage-amber">
  <style>
        @font-face {
            font-family: 'Inter';
            src: url('assets/fonts/Inter-Regular.ttf') format('truetype');
            font-weight: 400;
            font-style: normal;
            font-display: swap;
        }
        @font-face {
            font-family: 'Inter';
            src: url('assets/fonts/Inter-Bold.ttf') format('truetype');
            font-weight: 600;
            font-style: normal;
            font-display: swap;
        }
        @font-face {
            font-family: 'Inter';
            src: url('assets/fonts/Inter-Bold.ttf') format('truetype');
            font-weight: 800;
            font-style: normal;
            font-display: swap;
        }
        
:root {
    --background: #0f172a;
    --panel: #1e293b;
    --primary-text: #f1f5f9;
    --muted-text: #94a3b8;
    --inverse-text: #0f172a;
    --border: #334155;
    --shadow-color: #000000;
    --icon-pad-bg: #1e293b;
    --art-glow: #7dd3fc;
    --art-glow-opacity: 0.18;
    --art-sheen: #ffffff;
    --art-sheen-opacity: 0.18;
    --art-shadow: #000000;
    --art-shadow-opacity: 0.28;
    --art-muted-line: #64748b;
    --art-panel-tint: #1e293b;
    --semantic-risk: #f87171;
    --semantic-warning: #fb923c;
    --semantic-uncertain: #fbbf24;
    --semantic-evidence: #60a5fa;
    --semantic-claim: #c084fc;
    --semantic-positive: #4ade80;
    --semantic-outcome: #22d3ee;
    --font-family: 'Inter', 'Segoe UI', 'Kalam', Roboto, Helvetica, Arial, sans-serif;
    --radius-xl: 16px;
    --font-family-headline: 'Segoe UI Variable Display', 'Aptos Display', 'Inter', 'Segoe UI', Helvetica, Arial, sans-serif;
    --font-family-body: 'Segoe UI Variable Text', 'Aptos', 'Inter', 'Segoe UI', Helvetica, Arial, sans-serif;
    --font-heading: var(--font-family-headline);
    --font-body: var(--font-family-body);
    --font-size-h1: 64px;
    --font-size-h2: 42px;
    --font-size-h3: 29px;
    --font-size-body: 21px;
    --font-size-caption: 17px;
    --secondary-text: var(--muted-text);
    --panel-border: var(--border);
    --font-weight-normal: 400;
    --font-weight-medium: 500;
    --font-weight-semibold: 600;
    --font-weight-bold: 700;
    --spacing-gutter-pct: 0.07;
    --spacing-top-pct: 0.15;
    --spacing-bottom-pct: 0.07;
    --spacing-title-y-pct: 0.055;
    --accent-1: #fbbf24;
    --accent-2: #fb923c;
    --accent-3: #f59e0b;
    --accent-4: #fca5a5;
    --accent-5: #d6a66f;
    --accent-6: #7dd3fc;
}
:root[data-theme="dark"] {
    --background: #0f172a;
    --panel: #1e293b;
    --primary-text: #f1f5f9;
    --muted-text: #94a3b8;
    --inverse-text: #0f172a;
    --border: #334155;
    --shadow-color: #000000;
    --icon-pad-bg: #1e293b;
    --art-glow: #7dd3fc;
    --art-glow-opacity: 0.18;
    --art-sheen: #ffffff;
    --art-sheen-opacity: 0.18;
    --art-shadow: #000000;
    --art-shadow-opacity: 0.28;
    --art-muted-line: #64748b;
    --art-panel-tint: #1e293b;
    --semantic-risk: #f87171;
    --semantic-warning: #fb923c;
    --semantic-uncertain: #fbbf24;
    --semantic-evidence: #60a5fa;
    --semantic-claim: #c084fc;
    --semantic-positive: #4ade80;
    --semantic-outcome: #22d3ee;
    --accent-1: #fbbf24;
    --accent-2: #fb923c;
    --accent-3: #f59e0b;
    --accent-4: #fca5a5;
    --accent-5: #d6a66f;
    --accent-6: #7dd3fc;
}
:root[data-theme="light"] {
    --background: #f8fafc;
    --panel: #ffffff;
    --primary-text: #0f172a;
    --muted-text: #64748b;
    --inverse-text: #ffffff;
    --border: #e2e8f0;
    --shadow-color: #000000;
    --icon-pad-bg: #1e293b;
    --art-glow: #0891b2;
    --art-glow-opacity: 0.10;
    --art-sheen: #ffffff;
    --art-sheen-opacity: 0.34;
    --art-shadow: #0f172a;
    --art-shadow-opacity: 0.14;
    --art-muted-line: #94a3b8;
    --art-panel-tint: #f1f5f9;
    --semantic-risk: #b91c1c;
    --semantic-warning: #c2410c;
    --semantic-uncertain: #a16207;
    --semantic-evidence: #1d4ed8;
    --semantic-claim: #6d28d9;
    --semantic-positive: #15803d;
    --semantic-outcome: #0e7490;
    --accent-1: #a16207;
    --accent-2: #c2410c;
    --accent-3: #b45309;
    --accent-4: #b91c1c;
    --accent-5: #92400e;
    --accent-6: #0369a1;
}</style>
  <rect x="0" y="0" width="1.92E+3" height="1.08E+3" fill="#252a34" stroke="none" id="programmatic_background"/>
  <line id="HEADER_DECOR" x1="960.0" x2="1080.0" y1="135.0" y2="135.0" stroke="var(--accent-1)" stroke-width="6" stroke-linecap="round"/>
  <defs>
    <pattern id="svg91652ccc-napkin-hatch" patternUnits="userSpaceOnUse" width="12" height="12">
      <path d="M -3 12 L 12 -3 M 0 15 L 15 0" fill="none" stroke="var(--primary-text)" stroke-width="1" stroke-opacity="0.05"/>
    </pattern>
    <filter id="svg91652ccc-shadow" x="-30%" y="-30%" width="160%" height="160%">
      <feDropShadow dx="0" dy="2" stdDeviation="3" flood-color="#000000" flood-opacity="0.08"/>
      <feDropShadow dx="0" dy="6" stdDeviation="10" flood-color="#000000" flood-opacity="0.12"/>
    </filter>
    <marker id="svg91652ccc-arrowhead" markerWidth="10" markerHeight="10" refX="9" refY="5" orient="auto">
      <path d="M 0 0 L 10 5 L 0 10 Z" fill="var(--accent-1)"/>
    </marker>
    <filter id="svg91652ccc-text-glow" x="-20%" y="-20%" width="140%" height="140%">
      <feDropShadow dx="0" dy="0" stdDeviation="2" flood-color="#000000" flood-opacity="0.4"/>
    </filter>
    <radialGradient id="svg91652ccc-universal-edge-vignette" cx="50%" cy="50%" r="72%">
      <stop offset="0%" stop-color="var(--background)" stop-opacity="0"/>
      <stop offset="72%" stop-color="var(--background)" stop-opacity="0.12"/>
      <stop offset="100%" stop-color="var(--primary-text)" stop-opacity="0.08"/>
    </radialGradient>
    <linearGradient id="svg91652ccc-universal-surface-sheen" x1="0%" y1="0%" x2="100%" y2="100%">
      <stop offset="0%" stop-color="var(--art-sheen)" stop-opacity="var(--art-sheen-opacity)"/>
      <stop offset="46%" stop-color="var(--art-sheen)" stop-opacity="0.035"/>
      <stop offset="100%" stop-color="var(--art-panel-tint)" stop-opacity="0.14"/>
    </linearGradient>
    <radialGradient id="svg91652ccc-universal-icon-aura" cx="50%" cy="42%" r="64%">
      <stop offset="0%" stop-color="var(--art-glow)" stop-opacity="var(--art-glow-opacity)"/>
      <stop offset="100%" stop-color="var(--background)" stop-opacity="0"/>
    </radialGradient>
    <linearGradient id="svg91652ccc-myth-card-sheen" x1="0%" y1="0%" x2="100%" y2="100%">
      <stop offset="0%" stop-color="var(--inverse-text)" stop-opacity="0.18"/>
      <stop offset="56%" stop-color="var(--inverse-text)" stop-opacity="0.03"/>
      <stop offset="100%" stop-color="var(--background)" stop-opacity="0.12"/>
    </linearGradient>
  </defs>
  <rect width="100%" height="100%" fill="var(--background)" id="CANVAS_BG"/>
  <rect width="100%" height="100%" fill="url(#svg91652ccc-napkin-hatch)"/>
  <rect id="UNIVERSAL_EDGE_VIGNETTE" width="100%" height="100%" fill="url(#svg91652ccc-universal-edge-vignette)" opacity="0.62"/>
  <text id="TITLE" x="960.0" y="59" text-anchor="middle" font-weight="800" font-size="56" fill="#f1f5f9" style="font-size: 69px; font-family: 'Segoe UI Variable Display', 'Aptos Display', 'Inter', 'Segoe UI', Helvetica, Arial, sans-serif; font-weight: 800; font-kerning: normal; font-feature-settings: &quot;kern&quot; 1, &quot;liga&quot; 1; letter-spacing:-1.2px;" data-final-font-size="69">
    <tspan x="960.0" dy="70.47px">Planned Maritime Museum Exhibits</tspan>
  </text>
  <rect id="TITLE_FRAME" x="134" y="59" width="1652" height="103" fill="none"/>
  <g transform="translate(0, 190) scale(1.0)">
    <path d="M 920 -8 C 950 80 950 720 920 808" stroke="var(--primary-text)" stroke-width="2" stroke-opacity="0.10" fill="none"/>
    <path d="M 1000 -8 C 970 80 970 720 1000 808" stroke="var(--primary-text)" stroke-width="2" stroke-opacity="0.10" fill="none"/>
    <text x="480.0" y="0" text-anchor="middle" font-weight="900" font-size="52" fill="var(--accent-1)">MYTHS</text>
    <text x="1440.0" y="0" text-anchor="middle" font-weight="900" font-size="52" fill="var(--accent-2)">REALITY</text>
    <!-- Row 1 - cards at y=130 -->
    <g transform="translate(480.0, 130.0)">
      <rect id="ITEM_1_ACCENT_BG" x="-400" y="-110" width="800" height="245" rx="24" fill="var(--accent-6)" fill-opacity="0.15" stroke="none"/>
      <rect id="ITEM_1_BG" x="-400" y="-110" width="800" height="245" rx="18" fill="var(--panel)" stroke="var(--accent-1)" filter="url(#svg91652ccc-shadow)" stroke-width="3"/>
      <rect x="-388" y="-98" width="776" height="221" rx="16" fill="url(#svg91652ccc-myth-card-sheen)" opacity="0.92"/>
      <circle id="ITEM_1_PAD" cx="-330" cy="-40" r="46" fill="var(--icon-pad-bg)" stroke="var(--accent-6)" stroke-width="2" stroke-opacity="0.72" opacity="1" fill-opacity="0.9" data-badge-layer="pad"/>
      <circle id="ITEM_1_PAD_INNER" cx="-330" cy="-40" r="35.88" fill="var(--accent-6)" fill-opacity="0.12" stroke="none" data-badge-layer="tint"/>
      <circle cx="-330" cy="-40" r="34" fill="none" stroke="var(--accent-1)" stroke-width="3" stroke-dasharray="6 4" display="none" data-suppressed-decoration="redundant-badge-ring"/>
      <g id="ITEM_1_ICON" transform="translate(-358, -68)" data-icon-size="56" stroke-linecap="round" stroke-linejoin="round" data-badge-treatment="clean">
        <g transform="translate(-13.005714285714289,-13.005714285714289) scale(2.562857142857143)">
          <path d="M3 12C2.44772 12 2 12.4477 2 13V15C2 15.5523 2.44771 16 3 16H3.3L6.85861 27.862C7.2393 29.131 8.40727 30 9.73209 30H22.2679C23.5927 30 24.7607 29.131 25.1414 27.862L28.7 16H29C29.5523 16 30 15.5523 30 15V13C30 12.4477 29.5523 12 29 12H11L10 11.5L9 12H3Z" fill="#F3AD61"/>
          <path d="M3.67772 16L3.38721 16.2905L3.71356 17.3784L5.01047 16.0815L6.42469 17.4957L5.01045 18.9099L3.81409 17.7135L4.69264 20.6419L5.01045 20.3241L6.42469 21.7384L5.34536 22.8177L6.23845 25.7948L6.42469 25.981L6.32443 26.0813L6.65079 27.1691L7.13179 26.6881L8.54601 28.1023L7.56926 29.0791C7.80451 29.3236 8.07981 29.5269 8.38294 29.6796L9.25312 28.8094L10.4437 30H12.3052L13.4958 28.8094L14.6863 30H16.5479L17.7384 28.8094L18.929 30H20.7904L21.981 28.8094L23.0643 29.8926C23.4103 29.7974 23.7338 29.6413 24.0206 29.4348L22.6881 28.1023L24.1024 26.6881L25.163 27.7487L25.1807 27.7309L25.4989 26.6704L24.8095 25.981L26.0899 24.7005L26.696 22.6802L26.2237 23.1525L24.8095 21.7383L26.2237 20.3241L27.1307 21.2311L27.4571 20.1432L26.9308 19.617L27.9081 18.6397L28.5142 16.6194L28.345 16.7886L27.5564 16H24.891L24.1024 16.7886L23.3138 16H20.6483L19.8598 16.7886L19.0712 16H16.4057L15.6171 16.7886L14.8285 16H12.163L11.3745 16.7886L10.5859 16H7.92037L7.13179 16.7886L6.34322 16H3.67772ZM5.71756 19.617L7.13179 18.2028L8.54602 19.617L7.13179 21.0313L5.71756 19.617ZM7.8389 21.7384L9.25313 20.3241L10.6673 21.7383L9.25312 23.1526L7.8389 21.7384ZM9.96024 19.617L11.3745 18.2028L12.7887 19.617L11.3745 21.0312L9.96024 19.617ZM9.96022 23.8597L11.3745 22.4454L12.7887 23.8597L11.3744 25.2739L9.96022 23.8597ZM14.91 21.7383L13.4958 23.1526L12.0816 21.7383L13.4958 20.3241L14.91 21.7383ZM12.0815 25.981L13.4958 24.5668L14.91 25.981L13.4958 27.3952L12.0815 25.981ZM14.2029 23.8597L15.6171 22.4454L17.0313 23.8597L15.6171 25.2739L14.2029 23.8597ZM14.2029 28.1023L15.6171 26.6881L17.0313 28.1023L15.6171 29.5166L14.2029 28.1023ZM19.8597 29.5165L18.4455 28.1023L19.8598 26.6881L21.2739 28.1023L19.8597 29.5165ZM16.3242 25.981L17.7384 24.5668L19.1527 25.981L17.7384 27.3952L16.3242 25.981ZM21.981 27.3952L20.5669 25.981L21.9811 24.5668L23.3953 25.981L21.981 27.3952ZM24.1024 25.2738L22.6882 23.8597L24.1024 22.4454L25.5166 23.8596L24.1024 25.2738ZM21.9811 23.1526L20.5669 21.7384L21.9811 20.3241L23.3953 21.7383L21.9811 23.1526ZM25.5166 19.617L24.1024 21.0312L22.6882 19.617L24.1024 18.2028L25.5166 19.617ZM23.3953 17.4957L21.9811 18.9099L20.5669 17.4957L21.9811 16.0815L23.3953 17.4957ZM17.7384 16.0815L19.1527 17.4957L17.7384 18.9099L16.3242 17.4957L17.7384 16.0815ZM19.8598 18.2028L21.274 19.617L19.8598 21.0313L18.4455 19.617L19.8598 18.2028ZM15.6171 18.2028L17.0313 19.617L15.6171 21.0312L14.2029 19.617L15.6171 18.2028ZM17.7384 20.3241L19.1527 21.7384L17.7384 23.1526L16.3242 21.7383L17.7384 20.3241ZM19.8598 25.2739L18.4455 23.8597L19.8598 22.4455L21.274 23.8597L19.8598 25.2739ZM27.6379 17.4957L26.2237 18.9099L24.8095 17.4957L26.2237 16.0815L27.6379 17.4957ZM11.3744 26.6881L12.7887 28.1023L11.3745 29.5166L9.96022 28.1023L11.3744 26.6881ZM14.91 17.4957L13.4958 18.9099L12.0816 17.4957L13.4958 16.0815L14.91 17.4957ZM10.6673 25.981L9.25312 27.3952L7.8389 25.981L9.25312 24.5668L10.6673 25.981ZM8.54601 23.8597L7.13179 25.2739L5.71758 23.8597L7.13179 22.4455L8.54601 23.8597ZM9.25313 18.9099L7.8389 17.4957L9.25312 16.0815L10.6673 17.4957L9.25313 18.9099Z" fill="#D3883E"/>
          <path d="M13 2C10.5 2 9 4 9 6V12H11V6C11 3.5 12.5 3 14 3H18C19.5 3 21 3.5 21 6V14C21 14.5523 21.4477 15 22 15C22.5523 15 23 14.5523 23 14V6C23 4 21.5 2 19 2H13Z" fill="#E19747"/>
        </g>
      </g>
      <text id="ITEM_1_HEAD" x="52.0" y="-85.0" text-anchor="middle" font-weight="bold" font-size="28" fill="var(--accent-6)" data-bg-id="ITEM_1_BG" fill-opacity="1.0" stroke="none" style="font-size: 31px; font-family: 'Segoe UI Variable Display', 'Aptos Display', 'Inter', 'Segoe UI', Helvetica, Arial, sans-serif; font-weight: 700; font-kerning: normal; font-feature-settings: &quot;kern&quot; 1, &quot;liga&quot; 1; letter-spacing:-0.4px;" data-final-font-size="31">
        <tspan x="52.0" dy="38.02px">Fishing Culture</tspan>
      </text>
      <rect id="ITEM_1_HEAD_FRAME" x="-220" y="-85" width="544" height="50" fill="none"/>
      <text id="ITEM_1_BODY" x="52.0" y="-14.0" text-anchor="middle" font-size="22" fill="var(--primary-text)" opacity="0.88" data-bg-id="ITEM_1_BG" data-max-lines="5" style="font-size: 23px; font-family: 'Segoe UI Variable Text', 'Aptos', 'Inter', 'Segoe UI', Helvetica, Arial, sans-serif; font-weight: 400; font-kerning: normal; font-feature-settings: &quot;kern&quot; 1, &quot;liga&quot; 1;" data-final-font-size="23">
        <tspan x="52.0" dy="37.08px">Exhibits traditional fish-trap making</tspan>
        <tspan x="52.0" dy="26.45px">and local practices</tspan>
      </text>
      <rect id="ITEM_1_BODY_FRAME" x="-220" y="-14" width="544" height="124" fill="none"/>
    </g>
    <g transform="translate(1440.0, 130.0)">
      <rect id="ITEM_2_ACCENT_BG" x="-400" y="-110" width="800" height="245" rx="24" fill="var(--accent-2)" fill-opacity="0.15" stroke="none"/>
      <rect id="ITEM_2_BG" x="-400" y="-110" width="800" height="245" rx="18" fill="var(--panel)" stroke="var(--accent-2)" filter="url(#svg91652ccc-shadow)" stroke-width="3"/>
      <rect x="-388" y="-98" width="776" height="221" rx="16" fill="url(#svg91652ccc-myth-card-sheen)" opacity="0.92"/>
      <circle id="ITEM_2_PAD" cx="330" cy="-40" r="46" fill="var(--icon-pad-bg)" stroke="var(--accent-2)" stroke-width="2" stroke-opacity="0.72" opacity="1" fill-opacity="0.9" data-badge-layer="pad"/>
      <circle id="ITEM_2_PAD_INNER" cx="330" cy="-40" r="35.88" fill="var(--accent-2)" fill-opacity="0.12" stroke="none" data-badge-layer="tint"/>
      <circle cx="330" cy="-40" r="34" fill="none" stroke="var(--accent-2)" stroke-width="3" stroke-dasharray="6 4" display="none" data-suppressed-decoration="redundant-badge-ring"/>
      <g id="ITEM_2_ICON" transform="translate(302, -68)" data-icon-size="56" stroke-linecap="round" stroke-linejoin="round" data-badge-treatment="clean">
        <g transform="translate(-13.005714285714289,-14.287142857142861) scale(2.562857142857143)">
          <path d="M14.1215 9.87866L29.1215 24.8787C30.2931 26.0502 30.2931 27.9497 29.1215 29.1213C27.95 30.2929 26.0505 30.2929 24.8789 29.1213L9.87891 14.1213L14.1215 9.87866Z" fill="#7D4533"/>
          <path d="M12.4272 3.22946C12.534 3.12267 12.6833 3.06987 12.8335 3.0858L16.0299 3.425C16.4479 3.46936 16.6279 3.97849 16.3307 4.27576L13.6065 6.99988C13.6065 6.99988 13.1796 7.51941 13.6568 7.99988L15.6065 9.94963C15.8018 10.1449 15.8018 10.4615 15.6065 10.6567L10.6568 15.6065C10.4615 15.8017 10.1449 15.8017 9.94967 15.6065L9.65968 15.3165L6.49988 14.4999L5.53067 11.1875L5.35348 11.0103C5.15822 10.815 5.15822 10.4984 5.35348 10.3032L12.4272 3.22946Z" fill="#B4ACBC"/>
          <path d="M2.17674 12.2981C2.07911 12.2005 2.07911 12.0422 2.17674 11.9446L2.82021 11.3011C3.60126 10.5201 4.86758 10.5201 5.64863 11.3011L9.53772 15.1902C10.3188 15.9713 10.3188 17.2376 9.53772 18.0186L8.89425 18.6621C8.79662 18.7597 8.63833 18.7597 8.5407 18.6621L2.17674 12.2981Z" fill="#CDC4D6"/>
        </g>
      </g>
      <text id="ITEM_2_HEAD" x="-52.0" y="-85.0" text-anchor="middle" font-weight="bold" font-size="28" fill="var(--accent-2)" data-bg-id="ITEM_2_BG" fill-opacity="1.0" stroke="none" style="font-size: 31px; font-family: 'Segoe UI Variable Display', 'Aptos Display', 'Inter', 'Segoe UI', Helvetica, Arial, sans-serif; font-weight: 700; font-kerning: normal; font-feature-settings: &quot;kern&quot; 1, &quot;liga&quot; 1; letter-spacing:-0.4px;" data-final-font-size="31">
        <tspan x="-52.0" dy="38.02px">Boatbuilding Traditions</tspan>
      </text>
      <rect id="ITEM_2_HEAD_FRAME" x="-324" y="-85" width="544" height="50" fill="none"/>
      <text id="ITEM_2_BODY" x="-52.0" y="-14.0" text-anchor="middle" font-size="22" fill="var(--primary-text)" opacity="0.88" data-bg-id="ITEM_2_BG" data-max-lines="5" style="font-size: 23px; font-family: 'Segoe UI Variable Text', 'Aptos', 'Inter', 'Segoe UI', Helvetica, Arial, sans-serif; font-weight: 400; font-kerning: normal; font-feature-settings: &quot;kern&quot; 1, &quot;liga&quot; 1;" data-final-font-size="23">
        <tspan x="-52.0" dy="37.08px">Showcases local techniques for constructing</tspan>
        <tspan x="-52.0" dy="26.45px">maritime vessels</tspan>
      </text>
      <rect id="ITEM_2_BODY_FRAME" x="-324" y="-14" width="544" height="124" fill="none"/>
    </g>
    <!-- Row 2 - cards at y=400 -->
    <g transform="translate(480.0, 400.0)">
      <rect id="ITEM_3_ACCENT_BG" x="-400" y="-110" width="800" height="245" rx="24" fill="var(--accent-3)" fill-opacity="0.15"/>
      <rect id="ITEM_3_BG" x="-400" y="-110" width="800" height="245" rx="18" fill="var(--panel)" stroke="var(--accent-3)" filter="url(#svg91652ccc-shadow)" stroke-width="3"/>
      <rect x="-388" y="-98" width="776" height="221" rx="16" fill="url(#svg91652ccc-myth-card-sheen)" opacity="0.92"/>
      <circle id="ITEM_3_PAD" cx="-330" cy="-40" r="46" fill="var(--icon-pad-bg)" stroke="var(--accent-3)" stroke-width="2" stroke-opacity="0.72" opacity="1" data-badge-layer="pad"/>
      <circle id="ITEM_3_PAD_INNER" cx="-330" cy="-40" r="35.88" fill="var(--accent-3)" fill-opacity="0.12" stroke="none" data-badge-layer="tint"/>
      <circle cx="-330" cy="-40" r="34" fill="none" stroke="var(--accent-3)" stroke-width="3" stroke-dasharray="6 4" display="none" data-suppressed-decoration="redundant-badge-ring"/>
      <g id="ITEM_3_ICON" transform="translate(-358, -68)" data-icon-size="56" stroke-linecap="round" stroke-linejoin="round" data-badge-treatment="clean">
        <g transform="translate(-14.524444444444448,-14.524444444444448) scale(3.543703703703704)" vector-effect="non-scaling-stroke" stroke-width="2.38" stroke-linecap="round" stroke-linejoin="round" stroke-opacity="1.0">
          <polyline points="14.5 17.5 3 6 3 3 6 3 17.5 14.5" vector-effect="non-scaling-stroke" fill="none" stroke="#f1f5f9"/>
          <line x1="13" x2="19" y1="19" y2="13" vector-effect="non-scaling-stroke" fill="none" stroke="#f1f5f9"/>
          <line x1="16" x2="20" y1="16" y2="20" vector-effect="non-scaling-stroke" fill="none" stroke="#f1f5f9"/>
          <line x1="19" x2="21" y1="21" y2="19" vector-effect="non-scaling-stroke" fill="none" stroke="#f1f5f9"/>
        </g>
      </g>
      <text id="ITEM_3_HEAD" x="52.0" y="-85.0" text-anchor="middle" font-weight="bold" font-size="28" fill="var(--accent-3)" data-bg-id="ITEM_3_BG" style="font-size: 31px; font-family: 'Segoe UI Variable Display', 'Aptos Display', 'Inter', 'Segoe UI', Helvetica, Arial, sans-serif; font-weight: 700; font-kerning: normal; font-feature-settings: &quot;kern&quot; 1, &quot;liga&quot; 1; letter-spacing:-0.4px;" data-final-font-size="31">
        <tspan x="52.0" dy="38.02px">Piracy and Warfare</tspan>
      </text>
      <rect id="ITEM_3_HEAD_FRAME" x="-220" y="-85" width="544" height="50" fill="none"/>
      <text id="ITEM_3_BODY" x="52.0" y="-14.0" text-anchor="middle" font-size="22" fill="var(--primary-text)" opacity="0.88" data-bg-id="ITEM_3_BG" data-max-lines="5" style="font-size: 23px; font-family: 'Segoe UI Variable Text', 'Aptos', 'Inter', 'Segoe UI', Helvetica, Arial, sans-serif; font-weight: 400; font-kerning: normal; font-feature-settings: &quot;kern&quot; 1, &quot;liga&quot; 1;" data-final-font-size="23">
        <tspan x="52.0" dy="37.08px">Explores privateering and naval conflicts</tspan>
        <tspan x="52.0" dy="26.45px">in Caribbean waters</tspan>
      </text>
      <rect id="ITEM_3_BODY_FRAME" x="-220" y="-14" width="544" height="124" fill="none"/>
    </g>
    <g transform="translate(1440.0, 400.0)">
      <rect id="ITEM_4_ACCENT_BG" x="-400" y="-110" width="800" height="245" rx="24" fill="var(--accent-4)" fill-opacity="0.15"/>
      <rect id="ITEM_4_BG" x="-400" y="-110" width="800" height="245" rx="18" fill="var(--panel)" stroke="var(--accent-4)" filter="url(#svg91652ccc-shadow)" stroke-width="3"/>
      <rect x="-388" y="-98" width="776" height="221" rx="16" fill="url(#svg91652ccc-myth-card-sheen)" opacity="0.92"/>
      <circle id="ITEM_4_PAD" cx="330" cy="-40" r="46" fill="var(--icon-pad-bg)" stroke="var(--accent-4)" stroke-width="2" stroke-opacity="0.72" opacity="1" data-badge-layer="pad"/>
      <circle id="ITEM_4_PAD_INNER" cx="330" cy="-40" r="35.88" fill="var(--accent-4)" fill-opacity="0.12" stroke="none" data-badge-layer="tint"/>
      <circle cx="330" cy="-40" r="34" fill="none" stroke="var(--accent-4)" stroke-width="3" stroke-dasharray="6 4" display="none" data-suppressed-decoration="redundant-badge-ring"/>
      <g id="ITEM_4_ICON" transform="translate(302, -68)" data-icon-size="56" stroke-linecap="round" stroke-linejoin="round" data-badge-treatment="clean">
        <g transform="translate(-10.946666666666669,-16.160000000000004) scale(0.15333333333333335)" vector-effect="non-scaling-stroke" fill="#f1f5f9" fill-opacity="1.0" stroke="none">
          <path fill="#f1f5f9" d="m94.371 87.72l-14.676 26.54l-40.927-24.873L20.07 120.15l42.192 25.641l-14.575 26.357l15.752 8.71l46.684-84.426zM112 128c-12.406 17.74-28.85 57.069-31.646 80.46c-1.51 12.633.156 22.758 2.863 26.73c1.353 1.985 2.479 2.81 4.902 3.314s6.516.344 12.47-1.736l12.307-4.301l-.341 13.033c-.303 11.499 4.752 25.295 12.767 38.895c2.02-17.074 8.016-34.148 14.38-51.221c-3.64 27.491-2.424 52.21 2.58 74.762c5.335 6.22 11.051 12.027 16.863 17.103c12.204 10.66 24.815 18.15 32.767 20.356c3.976 1.103 6.375.725 6.908.488s.76.118 1.239-2.805c1.542-9.415.807-30.268 1.867-55.385c1.003-23.768 5.305-54.726 14.319-83.528C197.233 181.141 160.156 136.151 112 128m118.8 88.178c-5.788 19.743-8.61 39.331-10.005 57.353l9.666 17.95l-10.805 4.714c-.187 7.113-.234 13.586-.285 19.766l19.652-8.576l.092.17l33.059-14.541l-.043-.08l93.627-40.862l-7.201-16.498l-94.989 41.457zm178.991 48.681c-44.479 57.958-86.364 118.263-184.195 170.905c1.367 1.082 2.706 2.157 4.013 3.199C239.647 446.963 248.1 453 256 453s16.353-6.037 26.39-14.037c10.038-8 21.66-17.963 37.61-17.963s27.572 9.963 37.61 17.963C367.646 446.963 376.1 453 384 453c1.082 0 2.174-.124 3.28-.34a749 749 0 0 0 4.878-22.088l-18.887-31.648l18.26-13.344l-16.855-15.451l29.488-17.693c3.11-29.2 4.82-58.325 5.627-87.577m17.697 9.9c-1.878 54.857-7.063 109.735-19.025 165.718c.642-.505 1.273-.992 1.928-1.514c8.532-6.8 18.212-15.017 30.72-17.328l7.094-4.451c.06-4.398.102-8.788.115-13.163l-13.947-2.99s6.643-16.46 13.211-32.105c-1.693-33.026-6.783-64.837-20.096-94.166zm-146.754 34.153l-33.058 14.541l30.902 57.39a407 407 0 0 0 28.238-23.491zM139.338 331.25l-15.188 6.629l7.2 16.498l22.902-9.996a190 190 0 0 1-6.947-5.783a213 213 0 0 1-7.967-7.348m-44.631 49.92c-2.589.006-5.186.17-7.824.549c-3.313.677-6.773 1.252-9.541 3.2c1.69 2.914 4.871 5.5 7.146 7.085c6.59 4.538 17.22 9.18 29.512 12.04c12.292 2.863 23.877 3.394 31.793 2.233c3.313-.677 6.771-1.253 9.539-3.2c-1.694-2.913-4.87-5.5-7.144-7.085c-6.59-4.538-17.218-9.177-29.51-12.039c-8.513-1.382-16.205-2.8-23.971-2.783m60.625 21.906c.13.305.063.281.121.03c.059-.252.128-.244-.121-.03m-86.457-.457c-2.918 6.024-5.2 12.191-6.947 18.436A44 44 0 0 1 64 421c15.95 0 27.572 9.963 37.61 17.963C111.646 446.963 120.1 453 128 453c6.132 0 12.607-3.657 19.887-9.025c1.978-6.92 3.63-13.802 4.754-20.66a61 61 0 0 1-4.235.77c-10.999 1.614-24.335.786-38.488-2.509s-26.483-8.443-35.639-14.748a55 55 0 0 1-5.404-4.209M64 439c-13.413 0-26.972 6.374-39 13.35v21.064c.916-.582 1.815-1.16 2.768-1.746C40.264 463.988 56.099 457 64 457s16.353 6.037 26.39 14.037c10.038 8 21.66 17.963 37.61 17.963s27.572-9.963 37.61-17.963C175.646 463.037 184.1 457 192 457s16.353 6.037 26.39 14.037c10.038 8 21.66 17.963 37.61 17.963s27.572-9.963 37.61-17.963C303.646 463.037 312.1 457 320 457s16.354 6.037 26.39 14.037c10.038 8 21.66 17.963 37.61 17.963s27.572-9.963 37.61-17.963C431.646 463.037 440.1 457 448 457s23.736 6.989 36.232 14.668c.953.585 1.852 1.164 2.768 1.746V452.35c-12.028-6.976-25.587-13.35-39-13.35c-15.95 0-27.572 9.963-37.61 17.963C400.354 464.963 391.9 471 384 471s-16.353-6.037-26.39-14.037C347.572 448.963 335.95 439 320 439s-27.572 9.963-37.61 17.963C272.354 464.963 263.9 471 256 471s-16.353-6.037-26.39-14.037C219.572 448.963 207.95 439 192 439s-27.572 9.963-37.61 17.963C144.354 464.963 135.9 471 128 471s-16.353-6.037-26.39-14.037C91.571 448.963 79.95 439 64 439" vector-effect="non-scaling-stroke" stroke="none"/>
        </g>
      </g>
      <text id="ITEM_4_HEAD" x="-52.0" y="-85.0" text-anchor="middle" font-weight="bold" font-size="28" fill="var(--accent-4)" data-bg-id="ITEM_4_BG" style="font-size: 31px; font-family: 'Segoe UI Variable Display', 'Aptos Display', 'Inter', 'Segoe UI', Helvetica, Arial, sans-serif; font-weight: 700; font-kerning: normal; font-feature-settings: &quot;kern&quot; 1, &quot;liga&quot; 1; letter-spacing:-0.4px;" data-final-font-size="31">
        <tspan x="-52.0" dy="38.02px">Shipwrecks and Ruins</tspan>
      </text>
      <rect id="ITEM_4_HEAD_FRAME" x="-324" y="-85" width="544" height="50" fill="none"/>
      <text id="ITEM_4_BODY" x="-52.0" y="-14.0" text-anchor="middle" font-size="22" fill="var(--primary-text)" opacity="0.88" data-bg-id="ITEM_4_BG" data-max-lines="5" style="font-size: 23px; font-family: 'Segoe UI Variable Text', 'Aptos', 'Inter', 'Segoe UI', Helvetica, Arial, sans-serif; font-weight: 400; font-kerning: normal; font-feature-settings: &quot;kern&quot; 1, &quot;liga&quot; 1;" data-final-font-size="23">
        <tspan x="-52.0" dy="42.37px">Documents maritime disasters connected with the island</tspan>
      </text>
      <rect id="ITEM_4_BODY_FRAME" x="-324" y="-14" width="544" height="124" fill="none"/>
    </g>
    <!-- Row 3 - cards at y=670 -->
    <g transform="translate(480.0, 670.0)">
      <rect id="ITEM_5_ACCENT_BG" x="-400" y="-110" width="800" height="245" rx="24" fill="var(--accent-5)" fill-opacity="0.15"/>
      <rect id="ITEM_5_BG" x="-400" y="-110" width="800" height="245" rx="18" fill="var(--panel)" stroke="var(--accent-5)" filter="url(#svg91652ccc-shadow)" stroke-width="3"/>
      <rect x="-388" y="-98" width="776" height="221" rx="16" fill="url(#svg91652ccc-myth-card-sheen)" opacity="0.92"/>
      <circle id="ITEM_5_PAD" cx="-330" cy="-40" r="46" fill="var(--icon-pad-bg)" stroke="var(--accent-5)" stroke-width="2" stroke-opacity="0.72" opacity="1" data-badge-layer="pad"/>
      <circle id="ITEM_5_PAD_INNER" cx="-330" cy="-40" r="35.88" fill="var(--accent-5)" fill-opacity="0.12" stroke="none" data-badge-layer="tint"/>
      <circle cx="-330" cy="-40" r="34" fill="none" stroke="var(--accent-5)" stroke-width="3" stroke-dasharray="6 4" display="none" data-suppressed-decoration="redundant-badge-ring"/>
      <g id="ITEM_5_ICON" transform="translate(-358, -68)" data-icon-size="56" stroke-linecap="round" stroke-linejoin="round" data-badge-treatment="clean">
        <g transform="translate(-10.920677966101698,-10.920677966101701) scale(3.243389830508475)" vector-effect="non-scaling-stroke" stroke-width="2.38" stroke-linecap="round" stroke-linejoin="round" stroke-opacity="1.0">
          <path d="M2 8h20" vector-effect="non-scaling-stroke" fill="none" stroke="#f1f5f9"/>
          <rect width="20" height="16" x="2" y="4" rx="2" vector-effect="non-scaling-stroke" fill="none" stroke="#f1f5f9"/>
          <path d="M6 16h12" vector-effect="non-scaling-stroke" fill="none" stroke="#f1f5f9"/>
        </g>
      </g>
      <text id="ITEM_5_HEAD" x="52.0" y="-85.0" text-anchor="middle" font-weight="bold" font-size="28" fill="var(--accent-5)" data-bg-id="ITEM_5_BG" style="font-size: 31px; font-family: 'Segoe UI Variable Display', 'Aptos Display', 'Inter', 'Segoe UI', Helvetica, Arial, sans-serif; font-weight: 700; font-kerning: normal; font-feature-settings: &quot;kern&quot; 1, &quot;liga&quot; 1; letter-spacing:-0.4px;" data-final-font-size="31">
        <tspan x="52.0" dy="38.02px">Maritime Economy</tspan>
      </text>
      <rect id="ITEM_5_HEAD_FRAME" x="-220" y="-85" width="544" height="50" fill="none"/>
      <text id="ITEM_5_BODY" x="52.0" y="-14.0" text-anchor="middle" font-size="22" fill="var(--primary-text)" opacity="0.88" data-bg-id="ITEM_5_BG" data-max-lines="5" style="font-size: 23px; font-family: 'Segoe UI Variable Text', 'Aptos', 'Inter', 'Segoe UI', Helvetica, Arial, sans-serif; font-weight: 400; font-kerning: normal; font-feature-settings: &quot;kern&quot; 1, &quot;liga&quot; 1;" data-final-font-size="23">
        <tspan x="52.0" dy="42.37px">Highlights the role of enslaved labor in shipping</tspan>
      </text>
      <rect id="ITEM_5_BODY_FRAME" x="-220" y="-14" width="544" height="124" fill="none"/>
    </g>
  </g>
  <text id="SOURCE_NOTE" x="134.0" y="1058.0" fill="var(--muted-text)" opacity="0.88" style="font-family: var(--font-family); font-size: 20px;">Source: Introduction</text>
</svg>
